<svg width="4" height="17" viewBox="0 0 4 17" fill="none" xmlns="http://www.w3.org/2000/svg">
<path d="M2 4.75452C3.1 4.75452 4 3.85452 4 2.75452C4 1.65452 3.1 0.754517 2 0.754517C0.9 0.754517 0 1.65452 0 2.75452C0 3.85452 0.9 4.75452 2 4.75452ZM2 6.75452C0.9 6.75452 0 7.65452 0 8.75452C0 9.85452 0.9 10.7545 2 10.7545C3.1 10.7545 4 9.85452 4 8.75452C4 7.65452 3.1 6.75452 2 6.75452ZM2 12.7545C0.9 12.7545 0 13.6545 0 14.7545C0 15.8545 0.9 16.7545 2 16.7545C3.1 16.7545 4 15.8545 4 14.7545C4 13.6545 3.1 12.7545 2 12.7545Z" fill="white"/>
</svg>
