<svg width="20" height="20" viewBox="0 0 20 20" fill="none" xmlns="http://www.w3.org/2000/svg">
<g clip-path="url(#clip0_115_6233)">
<path fill-rule="evenodd" clip-rule="evenodd" d="M13.8916 10.9417C15.0333 11.7167 15.8333 12.7667 15.8333 14.1667V16.6667H19.1666V14.1667C19.1666 12.35 16.1916 11.275 13.8916 10.9417Z" fill="white"/>
<path d="M7.49935 9.99999C9.3403 9.99999 10.8327 8.50761 10.8327 6.66666C10.8327 4.82571 9.3403 3.33333 7.49935 3.33333C5.6584 3.33333 4.16602 4.82571 4.16602 6.66666C4.16602 8.50761 5.6584 9.99999 7.49935 9.99999Z" fill="white"/>
<path fill-rule="evenodd" clip-rule="evenodd" d="M12.4999 9.99999C14.3416 9.99999 15.8333 8.50833 15.8333 6.66666C15.8333 4.82499 14.3416 3.33333 12.4999 3.33333C12.1083 3.33333 11.7416 3.41666 11.3916 3.53333C12.0833 4.39166 12.4999 5.48333 12.4999 6.66666C12.4999 7.84999 12.0833 8.94166 11.3916 9.79999C11.7416 9.91666 12.1083 9.99999 12.4999 9.99999Z" fill="white"/>
<path fill-rule="evenodd" clip-rule="evenodd" d="M7.49967 10.8333C5.27467 10.8333 0.833008 11.95 0.833008 14.1667V16.6667H14.1663V14.1667C14.1663 11.95 9.72467 10.8333 7.49967 10.8333Z" fill="white"/>
</g>
<defs>
<clipPath id="clip0_115_6233">
<rect width="20" height="20" fill="white"/>
</clipPath>
</defs>
</svg>
