<svg width="24" height="24" viewBox="0 0 24 24" fill="none" xmlns="http://www.w3.org/2000/svg">
<path d="M20 11V4.99997C20 4.46954 19.7893 3.96083 19.4142 3.58576C19.0391 3.21068 18.5304 2.99997 18 2.99997H5C4.46957 2.99997 3.96086 3.21068 3.58579 3.58576C3.21071 3.96083 3 4.46954 3 4.99997V19C3 19.5304 3.21071 20.0391 3.58579 20.4142C3.96086 20.7893 4.46957 21 5 21H10" stroke="#858585" stroke-width="1.5" stroke-linecap="round" stroke-linejoin="round"/>
<path d="M9.25 15H10" stroke="#858585" stroke-width="1.5" stroke-linecap="round" stroke-linejoin="round"/>
<path d="M17.5 13.818V17" stroke="#858585" stroke-width="1.5" stroke-linecap="round" stroke-linejoin="round"/>
<path d="M21 22H14.125C13.8266 22 13.5405 21.8814 13.3295 21.6705C13.1185 21.4595 13 21.1733 13 20.875V16.567C13.0002 16.2968 13.055 16.0294 13.161 15.781L13.708 14.501C13.7947 14.2983 13.939 14.1256 14.123 14.0042C14.307 13.8827 14.5226 13.818 14.743 13.818H20.257C20.4773 13.8181 20.6927 13.8828 20.8765 14.0043C21.0603 14.1257 21.2045 14.2984 21.291 14.501L21.839 15.783C21.9452 16.0314 22 16.2988 22 16.569V21C22 21.2652 21.8946 21.5195 21.7071 21.7071C21.5196 21.8946 21.2652 22 21 22Z" stroke="#858585" stroke-width="1.5" stroke-linecap="round" stroke-linejoin="round"/>
<path d="M22 18C22 17.7348 21.8946 17.4804 21.7071 17.2929C21.5196 17.1053 21.2652 17 21 17H14C13.7348 17 13.4804 17.1053 13.2929 17.2929C13.1054 17.4804 13 17.7348 13 18" stroke="#858585" stroke-width="1.5" stroke-linecap="round" stroke-linejoin="round"/>
<path d="M9.25 11H13" stroke="#858585" stroke-width="1.5" stroke-linecap="round" stroke-linejoin="round"/>
<path d="M9.25 7.12497H16" stroke="#858585" stroke-width="1.5" stroke-linecap="round" stroke-linejoin="round"/>
<path d="M6.75 7.79996C6.89834 7.79996 7.04334 7.75597 7.16668 7.67356C7.29001 7.59115 7.38614 7.47401 7.44291 7.33697C7.49967 7.19992 7.51453 7.04912 7.48559 6.90364C7.45665 6.75815 7.38522 6.62451 7.28033 6.51963C7.17544 6.41474 7.0418 6.34331 6.89632 6.31437C6.75083 6.28543 6.60003 6.30028 6.46299 6.35704C6.32594 6.41381 6.20881 6.50994 6.1264 6.63328C6.04399 6.75661 6 6.90162 6 7.04996C6 7.24887 6.07902 7.43964 6.21967 7.58029C6.36032 7.72094 6.55109 7.79996 6.75 7.79996Z" fill="#858585"/>
<path d="M6.75 11.8C6.89834 11.8 7.04334 11.756 7.16668 11.6736C7.29001 11.5911 7.38614 11.474 7.44291 11.337C7.49967 11.1999 7.51453 11.0491 7.48559 10.9036C7.45665 10.7582 7.38522 10.6245 7.28033 10.5196C7.17544 10.4147 7.0418 10.3433 6.89632 10.3144C6.75083 10.2854 6.60003 10.3003 6.46299 10.357C6.32594 10.4138 6.20881 10.5099 6.1264 10.6333C6.04399 10.7566 6 10.9016 6 11.05C6 11.2489 6.07902 11.4396 6.21967 11.5803C6.36032 11.7209 6.55109 11.8 6.75 11.8Z" fill="#858585"/>
<path d="M6.75 15.7C6.89834 15.7 7.04334 15.656 7.16668 15.5736C7.29001 15.4912 7.38614 15.374 7.44291 15.237C7.49967 15.0999 7.51453 14.9491 7.48559 14.8036C7.45665 14.6582 7.38522 14.5245 7.28033 14.4196C7.17544 14.3147 7.0418 14.2433 6.89632 14.2144C6.75083 14.1854 6.60003 14.2003 6.46299 14.2571C6.32594 14.3138 6.20881 14.4099 6.1264 14.5333C6.04399 14.6566 6 14.8016 6 14.95C6 15.1489 6.07902 15.3396 6.21967 15.4803C6.36032 15.6209 6.55109 15.7 6.75 15.7Z" fill="#858585"/>
</svg>
