<svg width="193" height="27" viewBox="0 0 193 27" fill="none" xmlns="http://www.w3.org/2000/svg">
<g clip-path="url(#clip0_103_949)">
<path d="M132.551 5.83964V5.93964H132.651H133.92V12.6448V12.7448H134.02H134.689H134.789V12.6448V5.93964H137.062H137.162V5.83964V5.22931V5.12931H137.062H134.789V4.16124C134.789 3.65675 134.908 3.32097 135.125 3.10272C135.345 2.8823 135.651 2.76593 136.089 2.76593C136.292 2.76593 136.495 2.79504 136.7 2.85361C136.896 2.90987 137.033 2.99251 137.174 3.13324L137.272 3.23181L137.334 3.10725L137.608 2.55795L137.64 2.49364L137.589 2.44275C137.423 2.27607 137.195 2.14719 136.911 2.05231C136.624 1.95643 136.339 1.92509 136.058 1.92509C135.369 1.92509 134.854 2.11453 134.466 2.50379L134.466 2.50354L134.461 2.50991C134.11 2.92586 133.92 3.43738 133.92 4.06969V5.12931H132.651H132.551V5.22931V5.83964Z" fill="#FF3B9D" stroke="#FF3B9D" stroke-width="0.2"/>
<path d="M143.225 12.3049L143.225 12.305L143.228 12.3028C143.79 11.9586 144.227 11.5194 144.571 10.9248C144.915 10.3275 145.071 9.66884 145.071 8.92179C145.071 8.17736 144.916 7.48776 144.571 6.91945C144.256 6.32145 143.786 5.8829 143.228 5.54077C142.662 5.19362 142.004 5.03776 141.29 5.03776C140.576 5.03776 139.918 5.19362 139.352 5.54077C138.789 5.88594 138.352 6.35599 138.011 6.91672C137.664 7.48555 137.509 8.17617 137.509 8.92179C137.509 9.66811 137.665 10.3262 138.009 10.9231C138.323 11.5216 138.793 11.9605 139.352 12.3028C139.918 12.65 140.576 12.8058 141.29 12.8058C142.038 12.8058 142.663 12.6178 143.225 12.3049ZM143.787 7.32085L143.787 7.32086L143.788 7.32281C144.052 7.79369 144.171 8.29503 144.171 8.92179C144.171 9.54448 144.024 10.0478 143.787 10.5239C143.553 10.9634 143.201 11.3165 142.759 11.5826C142.321 11.8466 141.852 11.965 141.29 11.965C140.761 11.965 140.26 11.8176 139.816 11.5801C139.381 11.347 139.059 10.9966 138.792 10.5208C138.528 10.0502 138.409 9.51851 138.409 8.92179C138.409 8.29335 138.528 7.76323 138.79 7.32523C139.057 6.87893 139.381 6.52572 139.821 6.26099C140.259 5.9972 140.758 5.8786 141.29 5.8786C141.822 5.8786 142.321 5.9972 142.759 6.26099C143.202 6.52735 143.553 6.88082 143.787 7.32085Z" fill="#FF3B9D" stroke="#FF3B9D" stroke-width="0.2"/>
<path d="M147.191 5.09879H147.091V5.19879V12.6448V12.6753V12.7753H147.191H147.921H148.021V12.6753V8.79973C148.021 7.87154 148.259 7.19528 148.696 6.6991C149.129 6.20703 149.737 5.97015 150.537 5.97015H150.537H150.537H150.538H150.538H150.538H150.538H150.538H150.538H150.539H150.539H150.539H150.539H150.539H150.539H150.54H150.54H150.54H150.54H150.54H150.541H150.541H150.541H150.541H150.541H150.541H150.542H150.542H150.542H150.542H150.542H150.543H150.543H150.543H150.543H150.543H150.543H150.544H150.544H150.544H150.544H150.544H150.544H150.545H150.545H150.545H150.545H150.545H150.546H150.546H150.546H150.546H150.546H150.546H150.547H150.547H150.547H150.547H150.547H150.547H150.548H150.548H150.548H150.548H150.548H150.549H150.549H150.549H150.549H150.549H150.549H150.55H150.55H150.55H150.55H150.55H150.551H150.551H150.551H150.551H150.551H150.551H150.552H150.552H150.552H150.552H150.552H150.552H150.553H150.553H150.553H150.553H150.553H150.554H150.554H150.554H150.554H150.554H150.554H150.555H150.555H150.555H150.555H150.555H150.556H150.556H150.556H150.556H150.556H150.556H150.557H150.557H150.557H150.557H150.557H150.557H150.558H150.558H150.558H150.558H150.558H150.559H150.559H150.559H150.559H150.559H150.559H150.56H150.56H150.56H150.56H150.56H150.561H150.561H150.561H150.561H150.561H150.561H150.562H150.562H150.562H150.562H150.562H150.562H150.563H150.563H150.563H150.563H150.563H150.564H150.564H150.564H150.564H150.564H150.564H150.565H150.565H150.565H150.565H150.565H150.565H150.566H150.566H150.566H150.566H150.566H150.567H150.567H150.567H150.567H150.567H150.567H150.568H150.568H150.568H150.568H150.568H150.569H150.569H150.569H150.569H150.569H150.569H150.57H150.57H150.57H150.57H150.57H150.57H150.571H150.571H150.571H150.571H150.571H150.572H150.572H150.572H150.572H150.572H150.572H150.573H150.573H150.573H150.573H150.573H150.574H150.574H150.574H150.574H150.574H150.574H150.575H150.575H150.575H150.575H150.575H150.575H150.576H150.576H150.576H150.576H150.576H150.577H150.577H150.577H150.577H150.577H150.577H150.578H150.578H150.578H150.578H150.578H150.579H150.579H150.579H150.579H150.579H150.579H150.58H150.58H150.58H150.58H150.58H150.58H150.581H150.581H150.581H150.581H150.581H150.582H150.582H150.582H150.582H150.582H150.582H150.583H150.583H150.583H150.583H150.583H150.584H150.584H150.584H150.584H150.584H150.584H150.585H150.585H150.585H150.585H150.585H150.585H150.586H150.586H150.586H150.586H150.586H150.587H150.587H150.587H150.587H150.587H150.587H150.588H150.588H150.588H150.588H150.588H150.588H150.589H150.589H150.589H150.589H150.589H150.59H150.59H150.59H150.59H150.59H150.59H150.591H150.591H150.591H150.591H150.591H150.592H150.592H150.592H150.592H150.592H150.592H150.593H150.593H150.593H150.593H150.593H150.593H150.594H150.594H150.594H150.594H150.594H150.595H150.595H150.595H150.595H150.595H150.595H150.596H150.596H150.596H150.596H150.596H150.597H150.597H150.597H150.597H150.597H150.597H150.598H150.598H150.598H150.598H150.598H150.598H150.599H150.599H150.599H150.599H150.599H150.6H150.6H150.6H150.6H150.6H150.6H150.601H150.601H150.601H150.601H150.601H150.602H150.602H150.602H150.602H150.602H150.602H150.603H150.603H150.603H150.603H150.603H150.603H150.604H150.604H150.604H150.604H150.604H150.605H150.605H150.605H150.605H150.605H150.605H150.606H150.606H150.606H150.606H150.606H150.606H150.607H150.607H150.607H150.607H150.607H150.608H150.608H150.608H150.608H150.608H150.608H150.609H150.609H150.609H150.609H150.609H150.61H150.61H150.61H150.61H150.61H150.61H150.611H150.611H150.611H150.611H150.611H150.611H150.612H150.612H150.612H150.612H150.612H150.613H150.613H150.613H150.613H150.613H150.613H150.614H150.614H150.614H150.614H150.614H150.615H150.615H150.615H150.615H150.615H150.615H150.616H150.616H150.616H150.616H150.616H150.616H150.617H150.617H150.617H150.617H150.617H150.618H150.618H150.618H150.618H150.618H150.618H150.619H150.619H150.619H150.619H150.619H150.62H150.62H150.62H150.62H150.62H150.62H150.621H150.621H150.621H150.621H150.621H150.621H150.622H150.622H150.622H150.622H150.622H150.623H150.623H150.623H150.623H150.623H150.623H150.624H150.624H150.624H150.624H150.624H150.624H150.625H150.625H150.625H150.625H150.625H150.626H150.626H150.626H150.626H150.626H150.626H150.627H150.627H150.627H150.627H150.627H150.628H150.628H150.628H150.628H150.628H150.628H150.629H150.629H150.629H150.629H150.629H150.629H150.63H150.63H150.63H150.63H150.63H150.631H150.631H150.631H150.631H150.631H150.631H150.632H150.632H150.632H150.632H150.632H150.633H150.633H150.633H150.633H150.633H150.633H150.634H150.634H150.634H150.634H150.634H150.634H150.635H150.635H150.635H150.635H150.635H150.636H150.636H150.636H150.636H150.636H150.636H150.637H150.637H150.637H150.637H150.637H150.638H150.638H150.638H150.638H150.638H150.638H150.639H150.639H150.639H150.639H150.639H150.639H150.64H150.64H150.64H150.64H150.64H150.641H150.641H150.641H150.641H150.641H150.641H150.642H150.642H150.642H150.642H150.642H150.642H150.643H150.643H150.643H150.643H150.643H150.644H150.644H150.644H150.644H150.644H150.644H150.645H150.645H150.645H150.645H150.645H150.646H150.646H150.646H150.646H150.646H150.646H150.647H150.647H150.647H150.647H150.647H150.647H150.648H150.648H150.648H150.648H150.648H150.649H150.649H150.649H150.649H150.649H150.649H150.65H150.65H150.65H150.65H150.65H150.651H150.651H150.651H150.651H150.651H150.651H150.652H150.652H150.652H150.652H150.652H150.652H150.653H150.653H150.653H150.653H150.653H150.654H150.654H150.654H150.654H150.654H150.654H150.655H150.655H150.655H150.655H150.655H150.656H150.656H150.656H150.656H150.656H150.656H150.657H150.657H150.657H150.657H150.657H150.657H150.658H150.658H150.658H150.658H150.658H150.659H150.659H150.659H150.659H150.659H150.659H150.66H150.66H150.66H150.66H150.66H150.66H150.661H150.661H150.661H150.661H150.661H150.662H150.662H150.662H150.662H150.662H150.662H150.663H150.663H150.663H150.663H150.663H150.664H150.664H150.664H150.664H150.664H150.664H150.665H150.665H150.665H150.665H150.665H150.665H150.666H150.666H150.666H150.666H150.666H150.667H150.667H150.667H150.667H150.667H150.667H150.668H150.668H150.668H150.668H150.668H150.669H150.669H150.669H150.669H150.669H150.669H150.67H150.67H150.67H150.67H150.67H150.67H150.671H150.671H150.671H150.671H150.671H150.672H150.672H150.672H150.672H150.672H150.672H150.673H150.673H150.673H150.673H150.673H150.674H150.674H150.674H150.674H150.674H150.674H150.675H150.675H150.675H150.675H150.675H150.675H150.676H150.676H150.676H150.676H150.676H150.677H150.677H150.677H150.677H150.677H150.677H150.678H150.678H150.678H150.678H150.678H150.678H150.679H150.679H150.679H150.679H150.679H150.68H150.68H150.68H150.68H150.68H150.68H150.681H150.681H150.681H150.681H150.681H150.682H150.682H150.682H150.682H150.682H150.682H150.683H150.683H150.683H150.683H150.683H150.683H150.684H150.684H150.684H150.684H150.684H150.685H150.685H150.685H150.685H150.685H150.685H150.686H150.686H150.686H150.686H150.686H150.687H150.687H150.687H150.687H150.687H150.687H150.688H150.688H150.688H150.688H150.688H150.688H150.689H150.689H150.689H150.689H150.689H150.69H150.69H150.69H150.69H150.69H150.69H150.691H150.691H150.691H150.691H150.691H150.692H150.692H150.692H150.692H150.692H150.692H150.693H150.693H150.693H150.693H150.693H150.693H150.694H150.694H150.694H150.694H150.694H150.695H150.695H150.695H150.695H150.695H150.695H150.696H150.696H150.696H150.696H150.696H150.696H150.697H150.697H150.697H150.697H150.697H150.698H150.698H150.698H150.698H150.698H150.698H150.699H150.699H150.699H150.699H150.699H150.7H150.7H150.7H150.7H150.7H150.7H150.701H150.701H150.701H150.701H150.701H150.701H150.702H150.702H150.702H150.702H150.702H150.703H150.703H150.703H150.703H150.703H150.703H150.704H150.704H150.704H150.704H150.704H150.705H150.705H150.705H150.705H150.705H150.705H150.706H150.706H150.706H150.706H150.706H150.706H150.707H150.707H150.707H150.707H150.707H150.708H150.708H150.708H150.708H150.708H150.708H150.709H150.709H150.709H150.709H150.709H150.71H150.71H150.71H150.71H150.71H150.71H150.711H150.711H150.711H150.711H150.711H150.711H150.712H150.712H150.712H150.712H150.712H150.713H150.713H150.713H150.713H150.713H150.713H150.714H150.714H150.714H150.714H150.714H150.714H150.715H150.715H150.715H150.715H150.715H150.716H150.716H150.716H150.716H150.716H150.716H150.717H150.717H150.717H150.717H150.717H150.718H150.718H150.718H150.718H150.718H150.718H150.719H150.719H150.719H150.719H150.719H150.719H150.819V5.87015V5.16827V5.06827H150.719C149.947 5.06827 149.318 5.22296 148.81 5.57221C148.445 5.78815 148.169 6.07666 147.96 6.43446V5.19879V5.09879H147.86H147.191Z" fill="#FF3B9D" stroke="#FF3B9D" stroke-width="0.2"/>
<path d="M133.898 14.2537H133.798V14.3537V24.7819V24.8819V24.9124H133.898V24.9819H134.568H134.668V24.8819V23.5219C134.964 23.9833 135.346 24.3374 135.794 24.6018C136.329 24.9171 136.955 25.0734 137.609 25.0734C138.325 25.0734 138.949 24.9171 139.542 24.6041L139.542 24.6043L139.548 24.601C140.106 24.2588 140.576 23.8203 140.89 23.2223C141.236 22.654 141.39 21.9644 141.39 21.2199C141.39 20.4409 141.204 19.7527 140.891 19.1879L140.891 19.1879L140.889 19.1843C140.548 18.6246 140.111 18.1533 139.546 17.8378C138.98 17.4914 138.323 17.3359 137.609 17.3359C136.955 17.3359 136.329 17.4923 135.794 17.8075C135.361 18.0631 134.99 18.4023 134.698 18.8245V14.3537V14.2537H134.598H133.898ZM140.047 22.7884L140.047 22.7884L140.046 22.7904C139.812 23.2304 139.46 23.5839 139.018 23.8502C138.579 24.1142 138.111 24.2326 137.549 24.2326C137.016 24.2326 136.517 24.114 136.079 23.8502L136.079 23.8501L136.075 23.8477C135.639 23.6146 135.317 23.2642 135.05 22.7884C134.786 22.3179 134.668 21.7861 134.668 21.1894C134.668 20.561 134.787 20.0308 135.049 19.5928C135.316 19.1466 135.639 18.7933 136.079 18.5286C136.517 18.2648 137.016 18.1462 137.549 18.1462C138.081 18.1462 138.58 18.2648 139.018 18.5286C139.457 18.7931 139.781 19.1459 140.048 19.5916C140.311 20.0622 140.429 20.5632 140.429 21.1894C140.429 21.8162 140.311 22.3175 140.047 22.7884Z" fill="#FF3B9D" stroke="#FF3B9D" stroke-width="0.2"/>
<path d="M144.771 24.7259L144.771 24.7261L144.776 24.7283C145.247 24.9489 145.809 25.0734 146.461 25.0734C147.175 25.0734 147.804 24.9177 148.342 24.5374C148.692 24.3102 148.974 24.0285 149.19 23.6931V24.9124V25.0124H149.29H149.959H150.059V24.9124V17.4359V17.3359H149.959H149.259H149.159V17.4359V21.403C149.159 21.969 149.041 22.4722 148.835 22.8842C148.632 23.2918 148.312 23.6141 147.931 23.8499C147.522 24.0839 147.053 24.2021 146.522 24.2021C145.78 24.2021 145.2 23.9941 144.798 23.5906C144.397 23.1885 144.188 22.5772 144.188 21.7692V17.4969V17.3969H144.088H143.389H143.289V17.4969V21.8302C143.289 22.5424 143.412 23.1393 143.665 23.6155C143.919 24.1245 144.3 24.4738 144.771 24.7259Z" fill="#FF3B9D" stroke="#FF3B9D" stroke-width="0.2"/>
<path d="M151.758 23.9774L151.718 24.0475L151.778 24.1017C152.095 24.3884 152.504 24.6078 153.06 24.7936C153.619 24.9803 154.207 25.0734 154.826 25.0734C155.471 25.0734 156.002 24.9815 156.415 24.7914C156.855 24.633 157.206 24.3782 157.432 24.0541C157.657 23.7326 157.785 23.3465 157.785 22.9288C157.785 22.518 157.691 22.159 157.491 21.8924C157.3 21.6358 157.075 21.4426 156.757 21.2831L156.757 21.2828L156.749 21.2797C156.445 21.1575 156.103 21.0327 155.759 20.9696C155.447 20.8914 155.135 20.8353 154.845 20.7831C154.793 20.7738 154.742 20.7645 154.692 20.7553L154.692 20.7553L154.69 20.7551C154.332 20.6952 154.034 20.6055 153.729 20.5138C153.444 20.4281 153.245 20.2858 153.072 20.1118C152.911 19.9508 152.827 19.7338 152.827 19.45C152.827 19.0886 152.991 18.7796 153.307 18.5202C153.615 18.2681 154.103 18.1462 154.826 18.1462C155.21 18.1462 155.596 18.2053 155.986 18.2954C156.375 18.4158 156.725 18.5636 157.014 18.7956L157.105 18.8685L157.163 18.7676L157.498 18.1877L157.544 18.1085L157.469 18.0559C157.154 17.8351 156.749 17.6478 156.284 17.5232C155.817 17.3672 155.32 17.3054 154.856 17.3054C154.238 17.3054 153.707 17.3983 153.265 17.5881C152.825 17.7775 152.505 18.0326 152.28 18.3552C152.053 18.6804 151.958 19.0677 151.958 19.45C151.958 19.8903 152.052 20.2497 152.251 20.5169C152.443 20.7735 152.668 20.9667 152.986 21.1262C153.295 21.2808 153.607 21.407 153.984 21.4705C154.351 21.5625 154.688 21.6238 155.053 21.6847C155.411 21.7446 155.709 21.8344 156.014 21.926C156.305 22.0137 156.503 22.1283 156.671 22.2976C156.832 22.4586 156.916 22.6755 156.916 22.9594C156.916 23.3531 156.75 23.6594 156.44 23.8856L156.44 23.8855L156.435 23.8891C156.129 24.1403 155.582 24.2631 154.826 24.2631C154.291 24.2631 153.816 24.1739 153.341 23.9952C152.89 23.8141 152.507 23.6058 152.246 23.373L152.154 23.2912L152.093 23.3976L151.758 23.9774Z" fill="#FF3B9D" stroke="#FF3B9D" stroke-width="0.2"/>
<path d="M160.585 14.5883L160.58 14.5833L160.574 14.579C160.441 14.4789 160.299 14.4063 160.088 14.4063C159.985 14.4063 159.895 14.4236 159.812 14.4607C159.729 14.4977 159.658 14.5519 159.591 14.6188C159.452 14.759 159.38 14.9368 159.38 15.1166C159.38 15.302 159.456 15.4482 159.591 15.5839C159.731 15.7242 159.909 15.7964 160.088 15.7964C160.27 15.7964 160.451 15.7221 160.592 15.5452L160.592 15.5452L160.594 15.5427C160.695 15.407 160.766 15.2339 160.766 15.0556C160.766 14.8848 160.73 14.7342 160.585 14.5883ZM159.623 24.9124V25.0124H159.723H160.423H160.523V24.9124V17.4969V17.3969H160.423H159.723H159.623V17.4969V24.9124Z" fill="#FF3B9D" stroke="#FF3B9D" stroke-width="0.2"/>
<path d="M168.683 17.6834L168.683 17.6833L168.678 17.681C168.208 17.4609 167.676 17.3359 167.054 17.3359C166.279 17.3359 165.618 17.5222 165.111 17.9032C164.758 18.1324 164.459 18.4178 164.234 18.7593V17.4969V17.3969H164.134H163.464H163.364V17.4969V24.9734V25.0734H163.464H164.164H164.264V24.9734V21.0063C164.264 20.4403 164.383 19.9371 164.588 19.5251C164.791 19.1175 165.111 18.7956 165.522 18.5602C165.93 18.3259 166.399 18.2072 166.963 18.2072C167.703 18.2072 168.253 18.4145 168.656 18.8187C169.057 19.2208 169.265 19.8321 169.265 20.6401V24.9124V25.0124H169.365H170.065H170.165V24.9124V20.5791C170.165 19.8664 170.042 19.2691 169.788 18.7927L169.788 18.7927L169.787 18.7907C169.505 18.2872 169.157 17.9373 168.683 17.6834Z" fill="#FF3B9D" stroke="#FF3B9D" stroke-width="0.2"/>
<path d="M173.406 22.8165C173.167 22.418 173.047 21.9434 173.027 21.4115H179.221H179.321V21.3115V21.3113V21.3111V21.3109V21.3108V21.3106V21.3104V21.3102V21.31V21.3099V21.3097V21.3095V21.3093V21.3091V21.309V21.3088V21.3086V21.3084V21.3082V21.3081V21.3079V21.3077V21.3075V21.3074V21.3072V21.307V21.3068V21.3066V21.3065V21.3063V21.3061V21.3059V21.3057V21.3056V21.3054V21.3052V21.305V21.3049V21.3047V21.3045V21.3043V21.3041V21.304V21.3038V21.3036V21.3034V21.3032V21.3031V21.3029V21.3027V21.3025V21.3023V21.3022V21.302V21.3018V21.3016V21.3015V21.3013V21.3011V21.3009V21.3007V21.3006V21.3004V21.3002V21.3V21.2998V21.2997V21.2995V21.2993V21.2991V21.299V21.2988V21.2986V21.2984V21.2982V21.2981V21.2979V21.2977V21.2975V21.2973V21.2972V21.297V21.2968V21.2966V21.2964V21.2963V21.2961V21.2959V21.2957V21.2956V21.2954V21.2952V21.295V21.2948V21.2947V21.2945V21.2943V21.2941V21.2939V21.2938V21.2936V21.2934V21.2932V21.2931V21.2929V21.2927V21.2925V21.2923V21.2922V21.292V21.2918V21.2916V21.2914V21.2913V21.2911V21.2909V21.2907V21.2905V21.2904V21.2902V21.29V21.2898V21.2897V21.2895V21.2893V21.2891V21.2889V21.2888V21.2886V21.2884V21.2882V21.288V21.2879V21.2877V21.2875V21.2873V21.2871V21.287V21.2868V21.2866V21.2864V21.2863V21.2861V21.2859V21.2857V21.2855V21.2854V21.2852V21.285V21.2848V21.2846V21.2845V21.2843V21.2841V21.2839V21.2838V21.2836V21.2834V21.2832V21.283V21.2829V21.2827V21.2825V21.2823V21.2821V21.282V21.2818V21.2816V21.2814V21.2812V21.2811V21.2809V21.2807V21.2805V21.2804V21.2802V21.28V21.2798V21.2796V21.2795V21.2793V21.2791V21.2789V21.2787V21.2786V21.2784V21.2782V21.278V21.2779V21.2777V21.2775V21.2773V21.2771V21.277V21.2768V21.2766V21.2764V21.2762V21.2761V21.2759V21.2757V21.2755V21.2753V21.2752V21.275V21.2748V21.2746V21.2745V21.2743V21.2741V21.2739V21.2737V21.2736V21.2734V21.2732V21.273V21.2728V21.2727V21.2725V21.2723V21.2721V21.272V21.2718V21.2716V21.2714V21.2712V21.2711V21.2709V21.2707V21.2705V21.2703V21.2702V21.27V21.2698V21.2696V21.2694V21.2693V21.2691V21.2689V21.2687V21.2686V21.2684V21.2682V21.268V21.2678V21.2677V21.2675V21.2673V21.2671V21.2669V21.2668V21.2666V21.2664V21.2662V21.2661V21.2659V21.2657V21.2655V21.2653V21.2652V21.265V21.2648V21.2646V21.2644V21.2643V21.2641V21.2639V21.2637V21.2635V21.2634V21.2632V21.263V21.2628V21.2627V21.2625V21.2623V21.2621V21.2619V21.2618V21.2616V21.2614V21.2612V21.261V21.2609V21.2607V21.2605V21.2603V21.2602V21.26V21.2598V21.2596V21.2594V21.2593V21.2591V21.2589V21.2587V21.2585V21.2584V21.2582V21.258V21.2578V21.2576V21.2575V21.2573V21.2571V21.2569V21.2568V21.2566V21.2564V21.2562V21.256V21.2559V21.2557V21.2555V21.2553V21.2551V21.255V21.2548V21.2546V21.2544V21.2542V21.2541V21.2539V21.2537V21.2535V21.2534V21.2532V21.253V21.2528V21.2526V21.2525V21.2523V21.2521V21.2519V21.2517V21.2516V21.2514V21.2512V21.251V21.2509V21.2507V21.2505V21.2503V21.2501V21.25V21.2498V21.2496V21.2494V21.2492V21.2491V21.2489V21.2487V21.2485V21.2483V21.2482V21.248V21.2478V21.2476V21.2475V21.2473V21.2471V21.2469V21.2467V21.2466V21.2464V21.2462V21.246V21.2458V21.2457V21.2455V21.2453V21.2451V21.245V21.2448V21.2446V21.2444V21.2442V21.2441V21.2439V21.2437V21.2435V21.2433V21.2432V21.243V21.2428V21.2426V21.2424V21.2423V21.2421V21.2419V21.2417V21.2416V21.2414V21.2412V21.241V21.2408V21.2407V21.2405V21.2403V21.2401V21.2399V21.2398V21.2396V21.2394V21.2392V21.2391V21.2389V21.2387V21.2385V21.2383V21.2382V21.238V21.2378V21.2376V21.2374V21.2373V21.2371V21.2369V21.2367V21.2365V21.2364V21.2362V21.236V21.2358V21.2357V21.2355V21.2353V21.2351V21.2349V21.2348V21.2346V21.2344V21.2342V21.234V21.2339V21.2337V21.2335V21.2333V21.2332V21.233V21.2328V21.2326V21.2324V21.2323V21.2321V21.2319V21.2317V21.2315V21.2314V21.2312V21.231V21.2308V21.2306V21.2305V21.2303V21.2301V21.2299V21.2298V21.2296V21.2294V21.2292V21.229V21.2289V21.2287V21.2285V21.2283V21.2281V21.228V21.2278V21.2276V21.2274V21.2273V21.2271V21.2269V21.2267V21.2265V21.2264V21.2262V21.226V21.2258V21.2256V21.2255V21.2253V21.2251V21.2249V21.2247V21.2246V21.2244V21.2242V21.224V21.2239V21.2237V21.2235V21.2233V21.2231V21.223V21.2228V21.2226V21.2224V21.2222V21.2221V21.2219V21.2217V21.2215V21.2213V21.2212V21.221V21.2208V21.2206V21.2205V21.2203V21.2201V21.2199V21.2197V21.2196V21.2194V21.2192V21.219V21.2188V21.2187V21.2185V21.2183V21.2181V21.218V21.2178V21.2176V21.2174V21.2172V21.2171V21.2169V21.2167V21.2165V21.2163V21.2162V21.216V21.2158V21.2156V21.2154V21.2153V21.2151V21.2149V21.2147V21.2146V21.2144V21.2142V21.214V21.2138V21.2137V21.2135V21.2133V21.2131V21.2129V21.2128V21.2126V21.2124V21.2122V21.2121V21.2119V21.2117V21.2115V21.2113V21.2112V21.211V21.2108V21.2106V21.2104V21.2103V21.2101V21.2099V21.2097V21.2095V21.2094V21.2092V21.209V21.2088V21.2087V21.2085V21.2083V21.2081V21.2079V21.2078V21.2076V21.2074V21.2072V21.207V21.2069V21.2067V21.2065V21.2063V21.2062V21.206V21.2058V21.2056V21.2054V21.2053V21.2051V21.2049V21.2047V21.2045V21.2044V21.2042V21.204V21.2038V21.2036V21.2035V21.2033V21.2031V21.2029V21.2028V21.2026V21.2024V21.2022V21.202V21.2019V21.2017V21.2015V21.2013V21.2011V21.201V21.2008V21.2006V21.2004V21.2003V21.2001V21.1999V21.1997V21.1995V21.1994V21.1992V21.199V21.1988V21.1986V21.1985V21.1983V21.1981V21.1979V21.1977V21.1976V21.1974V21.1972V21.197V21.1969V21.1967V21.1965V21.1963V21.1961V21.196V21.1958V21.1956V21.1954V21.1952V21.1951V21.1949V21.1947V21.1945V21.1943V21.1942V21.194V21.1938V21.1936V21.1935V21.1933V21.1931V21.1929V21.1927V21.1926V21.1924V21.1922V21.192V21.1918V21.1917V21.1915V21.1913V21.1911V21.191V21.1908V21.1906V21.1904V21.1902V21.1901V21.1899V21.1897V21.1895V21.1893V21.1892V21.189V21.1888V21.1886V21.1884V21.1883V21.1881V21.1879V21.1877V21.1876V21.1874V21.1872V21.187V21.1868V21.1867V21.1865V21.1863V21.1861V21.1859V21.1858V21.1856V21.1854V21.1852V21.1851V21.1849V21.1847V21.1845V21.1843V21.1842V21.184V21.1838V21.1836V21.1834V21.1833V21.1831V21.1829V21.1827V21.1825V21.1824V21.1822V21.182V21.1818V21.1817V21.1815V21.1813V21.1811V21.1809V21.1808V21.1806V21.1804V21.1802V21.18V21.1799V21.1797V21.1795V21.1793V21.1792V21.179V21.1788V21.1786V21.1784V21.1783V21.1781V21.1779V21.1777V21.1775V21.1774V21.1772V21.177V21.1768V21.1766V21.1765V21.1763V21.1761V21.1759V21.1758V21.1756V21.1754V21.1752V21.175V21.1749V21.1747V21.1745V21.1743V21.1741V21.174V21.1738V21.1736V21.1734V21.1732V21.1731V21.1729V21.1727V21.1725V21.1724V21.1722V21.172V21.1718V21.1716V21.1715V21.1713V21.1711V21.1709V21.1707V21.1706V21.1704V21.1702V21.17V21.1699V21.1697V21.1695V21.1693V21.1691V21.169V21.1688V21.1686V21.1684V21.1682V21.1681V21.1679V21.1677V21.1675V21.1673V21.1672V21.167V21.1668V21.1666V21.1665V21.1663V21.1661V21.1659V21.1657V21.1656V21.1654V21.1652V21.165V21.1648V21.1647V21.1645V21.1643V21.1641V21.164V21.1638V21.1636V21.1634V21.1632V21.1631V21.1629V21.1627V21.1625V21.1623V21.1622V21.162V21.1618V21.1616V21.1614V21.1613V21.1611V21.1609V21.1607V21.1606V21.1604V21.1602V21.16V21.1598V21.1597V21.1595V21.1593V21.1591V21.1589V21.1588V21.1586V21.1584V21.1582V21.1581V21.1579V21.1577V21.1575V21.1573V21.1572V21.157V21.1568V21.1566V21.1564V21.1563V21.1561V21.1559V21.1557V21.1555V21.1554V21.1552V21.155V21.1548V21.1547V21.1545V21.1543V21.1541V21.1539V21.1538V21.1536V21.1534V21.1532V21.153V21.1529V21.1527V21.1525V21.1523V21.1522V21.152V21.1518V21.1516V21.1514V21.1513V21.1511V21.1509V21.1507V21.1505V21.1504V21.1502V21.15V21.1498V21.1496V21.1495V21.1493V21.1491V21.1489V21.1488V21.1486V21.1484V21.1482V21.148V21.1479V21.1477V21.1475V21.1473V21.1471V21.147V21.1468V21.1466V21.1464V21.1462V21.1461V21.1459V21.1457V21.1455V21.1454V21.1452V21.145V21.1448V21.1446V21.1445V21.1443V21.1441V21.1439V21.1437V21.1436V21.1434V21.1432V21.143V21.1429V21.1427V21.1425V21.1423V21.1421V21.142V21.1418V21.1416V21.1414V21.1412V21.1411V21.1409V21.1407V21.1405V21.1403V21.1402V21.14V21.1398V21.1396V21.1395V21.1393V21.1391V21.1389V21.1387V21.1386V21.1384V21.1382V21.138V21.1378V21.1377V21.1375V21.1373V21.1371V21.137V21.1368V21.1366V21.1364V21.1362V21.1361V21.1359V21.1357V21.1355V21.1353V21.1352V21.135V21.1348V21.1346V21.1344V21.1343V21.1341V21.1339V21.1337V21.1336V21.1334V21.1332V21.133V21.1328V21.1327V21.1325V21.1323V21.1321V21.1319V21.1318V21.1316V21.1314V21.1312V21.1311V21.1309V21.1307V21.1305V21.1303V21.1302V21.13V21.1298V21.1296V21.1294V21.1293V21.1291V21.1289V21.1287V21.1285V21.1284C179.321 20.3826 179.166 19.6939 178.852 19.1269C178.542 18.5662 178.135 18.0929 177.567 17.7764C177.033 17.4613 176.407 17.3054 175.723 17.3054C175.038 17.3054 174.411 17.4618 173.845 17.8084C173.283 18.1535 172.845 18.6242 172.533 19.1879C172.219 19.7549 172.064 20.4437 172.064 21.1894C172.064 21.9357 172.219 22.5938 172.563 23.1907C172.878 23.7896 173.349 24.2289 173.939 24.5716C174.535 24.9177 175.191 25.0734 175.966 25.0734C176.556 25.0734 177.083 24.9798 177.669 24.7941L177.669 24.7947L177.679 24.7904C178.181 24.5703 178.588 24.2555 178.932 23.8478L178.989 23.78L178.929 23.7152L178.503 23.2574L178.422 23.1697L178.35 23.2657C178.089 23.615 177.77 23.8488 177.359 24.0259C176.943 24.1747 176.529 24.2631 176.057 24.2631C175.464 24.2631 174.964 24.1443 174.494 23.8793C174.023 23.6135 173.671 23.2598 173.406 22.8165ZM178.129 19.5274C178.31 19.869 178.422 20.2469 178.464 20.6622H173.044C173.087 20.2383 173.198 19.865 173.378 19.5274C173.612 19.0869 173.934 18.7633 174.347 18.4964C174.754 18.2341 175.221 18.1157 175.753 18.1157C176.285 18.1157 176.752 18.2341 177.159 18.4964L177.159 18.4966L177.164 18.4992C177.571 18.7327 177.893 19.084 178.129 19.5274Z" fill="#FF3B9D" stroke="#FF3B9D" stroke-width="0.2"/>
<path d="M180.229 23.9774L180.189 24.0475L180.249 24.1017C180.566 24.3884 180.975 24.6078 181.531 24.7936C182.089 24.9803 182.678 25.0734 183.297 25.0734C183.939 25.0734 184.502 24.9823 184.887 24.7909C185.327 24.6325 185.678 24.3779 185.903 24.0541C186.128 23.7326 186.256 23.3465 186.256 22.9288C186.256 22.518 186.162 22.159 185.962 21.8924C185.77 21.6358 185.545 21.4426 185.227 21.2831L185.228 21.2828L185.22 21.2797C184.915 21.1575 184.574 21.0327 184.23 20.9696C183.918 20.8914 183.606 20.8353 183.316 20.7831C183.264 20.7738 183.213 20.7645 183.163 20.7553L183.163 20.7553L183.161 20.7551C182.803 20.6952 182.505 20.6055 182.2 20.5138C181.915 20.4281 181.716 20.2858 181.542 20.1118C181.382 19.9508 181.298 19.7338 181.298 19.45C181.298 19.0886 181.462 18.7796 181.778 18.5202C182.086 18.2681 182.573 18.1462 183.297 18.1462C183.681 18.1462 184.067 18.2053 184.457 18.2954C184.846 18.4158 185.196 18.5636 185.485 18.7956L185.576 18.8685L185.634 18.7676L185.969 18.1877L186.015 18.1085L185.94 18.0559C185.625 17.8351 185.22 17.6478 184.755 17.5232C184.287 17.3672 183.791 17.3054 183.327 17.3054C182.709 17.3054 182.178 17.3983 181.736 17.5881C181.296 17.7775 180.976 18.0326 180.751 18.3552C180.524 18.6804 180.429 19.0677 180.429 19.45C180.429 19.8903 180.523 20.2497 180.722 20.5169C180.914 20.7735 181.139 20.9667 181.457 21.1262C181.765 21.2808 182.078 21.407 182.455 21.4705C182.822 21.5625 183.159 21.6238 183.524 21.6847C183.882 21.7446 184.18 21.8344 184.485 21.926C184.776 22.0137 184.974 22.1283 185.142 22.2976C185.303 22.4586 185.387 22.6755 185.387 22.9594C185.387 23.3531 185.221 23.6594 184.911 23.8856L184.911 23.8855L184.906 23.8891C184.6 24.1403 184.053 24.2631 183.297 24.2631C182.762 24.2631 182.287 24.1739 181.812 23.9952C181.361 23.8141 180.978 23.6058 180.717 23.373L180.625 23.2912L180.564 23.3976L180.229 23.9774Z" fill="#FF3B9D" stroke="#FF3B9D" stroke-width="0.2"/>
<path d="M187.012 23.9774L186.972 24.0475L187.032 24.1017C187.35 24.3884 187.759 24.6078 188.314 24.7936C188.873 24.9803 189.461 25.0734 190.08 25.0734C190.722 25.0734 191.285 24.9823 191.671 24.7909C192.11 24.6325 192.461 24.3779 192.687 24.0541C192.911 23.7326 193.039 23.3465 193.039 22.9288C193.039 22.518 192.945 22.159 192.746 21.8924C192.554 21.6358 192.329 21.4426 192.011 21.2831L192.011 21.2828L192.003 21.2797C191.699 21.1575 191.358 21.0327 191.014 20.9696C190.702 20.8914 190.389 20.8353 190.1 20.7831C190.048 20.7738 189.996 20.7645 189.946 20.7553L189.946 20.7553L189.944 20.7551C189.586 20.6952 189.288 20.6055 188.983 20.5138C188.698 20.4281 188.499 20.2858 188.326 20.1118C188.165 19.9508 188.081 19.7338 188.081 19.45C188.081 19.0886 188.246 18.7796 188.562 18.5202C188.869 18.2681 189.357 18.1462 190.08 18.1462C190.464 18.1462 190.85 18.2053 191.24 18.2954C191.629 18.4158 191.979 18.5636 192.268 18.7956L192.359 18.8685L192.417 18.7676L192.752 18.1877L192.798 18.1085L192.723 18.0559C192.409 17.8351 192.003 17.6478 191.538 17.5232C191.071 17.3672 190.574 17.3054 190.11 17.3054C189.492 17.3054 188.961 17.3983 188.52 17.5881C188.079 17.7775 187.759 18.0326 187.534 18.3552C187.307 18.6804 187.212 19.0677 187.212 19.45C187.212 19.8903 187.306 20.2497 187.506 20.5169C187.697 20.7735 187.922 20.9667 188.24 21.1262C188.549 21.2808 188.862 21.407 189.238 21.4705C189.606 21.5625 189.942 21.6238 190.307 21.6847C190.665 21.7446 190.963 21.8344 191.268 21.926C191.559 22.0137 191.757 22.1283 191.925 22.2976C192.086 22.4586 192.17 22.6755 192.17 22.9594C192.17 23.3532 192.004 23.6594 191.694 23.8856L191.694 23.8855L191.689 23.8891C191.383 24.1403 190.837 24.2631 190.08 24.2631C189.545 24.2631 189.07 24.1739 188.595 23.9952C188.144 23.8141 187.761 23.6058 187.5 23.373L187.408 23.2912L187.347 23.3976L187.012 23.9774Z" fill="#FF3B9D" stroke="#FF3B9D" stroke-width="0.2"/>
<path d="M30.0527 6.14481H27.4672L27.9234 3.55092C28.1972 1.93354 27.1326 0.621338 25.49 0.621338C23.8779 0.621338 22.3266 1.93354 22.0528 3.55092L21.5966 6.14481L20.7145 11.18L19.1327 20.3044C18.3115 25.0955 20.4711 26.5298 24.0604 26.5298C25.3379 26.5298 26.3721 26.3772 27.528 25.95C28.3797 25.6448 29.2314 24.7904 29.4139 23.7528C29.6572 22.4101 28.7143 21.3115 27.4063 21.3115C27.2847 21.3115 26.8892 21.342 26.7067 21.342C25.3988 21.342 24.9425 20.6706 25.1858 19.3279L26.5851 11.18H29.1706C30.5698 11.18 31.8777 10.0509 32.1211 8.67768C32.334 7.27392 31.4215 6.14481 30.0527 6.14481Z" fill="#FF3B9D"/>
<path d="M60.5007 4.8326C56.9114 4.8326 53.5959 6.3279 51.1625 8.64715C49.5808 6.29738 46.752 4.8326 43.1931 4.8326C36.7141 4.8326 31.0869 9.68471 30.0222 15.6659V15.7575C28.988 21.7387 32.9119 26.5298 39.33 26.5298C42.9193 26.5298 46.2349 25.0345 48.6683 22.7152C50.2804 25.065 53.0788 26.5298 56.6681 26.5298C63.1471 26.5298 68.7743 21.6777 69.839 15.6964V15.6354C70.8732 9.59316 66.9493 4.8326 60.5007 4.8326ZM46.6607 15.6659V15.7575C46.1132 18.8396 43.6494 21.4335 40.273 21.4335C37.0183 21.4335 35.2845 18.7481 35.8016 15.6964V15.6354C36.3491 12.5533 38.8129 9.95936 42.1893 9.95936C45.4744 9.92884 47.2082 12.5838 46.6607 15.6659ZM63.9988 15.6659V15.7575C63.4512 18.8396 60.9874 21.4335 57.6111 21.4335C54.3564 21.4335 52.6226 18.7481 53.1397 15.6964L53.1701 15.6354C53.7176 12.5533 56.1814 9.95936 59.5578 9.95936C62.8125 9.92884 64.5463 12.5838 63.9988 15.6659Z" fill="#FF3B9D"/>
<path d="M88.7283 0.529784C87.0858 0.529784 85.5649 1.84199 85.2607 3.48988L81.7627 23.5697C81.4889 25.2176 82.5536 26.5298 84.1961 26.5298C85.8387 26.5298 87.3596 25.2176 87.6637 23.5697L91.1618 3.48988C91.4659 1.84199 90.3709 0.529784 88.7283 0.529784ZM80.9718 6.02274H78.3863L78.8426 3.42884C79.1164 1.81147 78.0517 0.499268 76.4092 0.499268C74.8275 0.499268 73.2762 1.81147 73.0024 3.42884L72.5461 6.02274L71.664 11.058L70.0823 20.1824C69.261 24.9734 71.4207 26.4077 75.01 26.4077C76.2875 26.4077 77.3217 26.2551 78.4776 25.8279C79.3293 25.5227 80.181 24.6683 80.3635 23.6307C80.6068 22.288 79.6639 21.1894 78.3559 21.1894C78.2343 21.1894 77.8388 21.2199 77.6563 21.2199C76.3484 21.2199 75.8921 20.5486 76.105 19.2058L77.5346 11.058H80.1201C81.5194 11.058 82.8273 9.92884 83.0707 8.5556C83.2836 7.15185 82.3711 6.02274 80.9718 6.02274Z" fill="#FF3B9D"/>
<path d="M102.416 4.8326C96.3631 4.8326 91.3138 9.74574 90.2492 15.6659V15.727C89.1237 22.1049 92.9868 26.4993 99.2224 26.4993C102.234 26.4993 104.758 25.5227 106.857 23.9664C107.344 23.5697 107.8 22.9899 107.952 22.227C108.196 20.9148 107.374 19.8772 106.066 19.8772C105.458 19.8772 105.032 20.0298 104.545 20.3349C103.177 21.2199 101.747 21.7387 100.104 21.7387C97.4886 21.7387 95.846 20.3349 95.7548 17.6495H107.405C108.956 17.6495 110.355 16.5204 110.659 14.8115C111.42 10.5392 109.351 4.8326 102.416 4.8326ZM105.184 14.0791H96.3023C97.2452 11.3936 99.1311 9.65419 101.565 9.65419C104.059 9.65419 105.306 11.4241 105.184 14.0791Z" fill="#FF3B9D"/>
<path d="M123.891 8.03682H125.382C125.838 8.03682 126.203 8.31147 126.203 8.64715C126.203 8.98283 125.838 9.25748 125.382 9.25748H123.891C123.435 9.25748 123.07 8.98283 123.07 8.64715C123.07 8.31147 123.435 8.03682 123.891 8.03682Z" fill="#FF3B9D"/>
<path d="M114.553 8.03682H121.579C122.036 8.03682 122.401 8.31147 122.401 8.64715C122.401 8.98283 122.036 9.25748 121.579 9.25748H114.553C114.097 9.25748 113.732 8.98283 113.732 8.64715C113.732 8.31147 114.097 8.03682 114.553 8.03682Z" fill="#FF3B9D"/>
<path d="M112.91 4.8326H118.507C118.964 4.8326 119.329 5.10724 119.329 5.44292C119.329 5.77861 118.964 6.05325 118.507 6.05325H112.91C112.454 6.05325 112.089 5.77861 112.089 5.44292C112.089 5.10724 112.454 4.8326 112.91 4.8326Z" fill="#FF3B9D"/>
<path d="M2.76801 22.6847H0.973365C0.425847 22.6847 0 22.349 0 21.9523C0 21.5556 0.425847 21.2199 0.973365 21.2199H2.76801C3.31552 21.2199 3.74137 21.5556 3.74137 21.9523C3.74137 22.349 3.28511 22.6847 2.76801 22.6847Z" fill="#FF3B9D"/>
<path d="M13.9313 22.6847H5.53599C4.98847 22.6847 4.56262 22.349 4.56262 21.9523C4.56262 21.5556 4.98847 21.2199 5.53599 21.2199H13.9313C14.4788 21.2199 14.9046 21.5556 14.9046 21.9523C14.9046 22.349 14.4788 22.6847 13.9313 22.6847Z" fill="#FF3B9D"/>
<path d="M15.878 26.4993H9.18613C8.63862 26.4993 8.21277 26.1636 8.21277 25.7669C8.21277 25.3702 8.63862 25.0345 9.18613 25.0345H15.878C16.4255 25.0345 16.8514 25.3702 16.8514 25.7669C16.8514 26.1636 16.4255 26.4993 15.878 26.4993Z" fill="#FF3B9D"/>
</g>
<defs>
<clipPath id="clip0_103_949">
<rect width="193" height="26" fill="white" transform="translate(0 0.499268)"/>
</clipPath>
</defs>
</svg>
