<svg width="70" height="8" viewBox="0 0 70 8" fill="none" xmlns="http://www.w3.org/2000/svg">
<path d="M0.668701 7.57292V0.873932H3.27892C3.86488 0.873932 4.34431 0.980265 4.77047 1.13976C5.19663 1.29926 5.51624 1.61826 5.72932 1.93726C5.9424 2.30943 6.04894 2.6816 6.04894 3.21326C6.04894 3.69176 5.9424 4.11709 5.72932 4.43609C5.51624 4.80826 5.19663 5.07409 4.77047 5.23359C4.34431 5.44626 3.86488 5.49943 3.27892 5.49943H1.2014L1.62756 5.07409V7.57292H0.668701ZM1.62756 5.18043L1.2014 4.70193H3.27892C3.91815 4.70193 4.34431 4.59559 4.66393 4.32976C4.98355 4.06393 5.14336 3.69176 5.14336 3.21326C5.14336 2.73476 4.98355 2.3626 4.66393 2.09676C4.34431 1.83093 3.86488 1.7246 3.27892 1.7246H1.2014L1.62756 1.2461V5.18043Z" fill="#424242"/>
<path d="M10.6301 7.616C10.0974 7.616 9.61798 7.50967 9.19182 7.35017C8.76567 7.19067 8.39278 6.92484 8.07316 6.60584C7.75354 6.28684 7.48719 5.91467 7.32738 5.54251C7.16757 5.11717 7.06104 4.69184 7.06104 4.16017C7.06104 3.68167 7.16757 3.20318 7.32738 2.77784C7.48719 2.35251 7.75354 1.98034 8.07316 1.71451C8.39278 1.39551 8.76567 1.18285 9.19182 0.970179C9.61798 0.810679 10.0974 0.704346 10.6301 0.704346C11.1628 0.704346 11.589 0.810679 12.0684 0.970179C12.4945 1.12968 12.8674 1.39551 13.187 1.66134C13.5067 1.98034 13.773 2.35251 13.9328 2.77784C14.0926 3.20318 14.1992 3.62851 14.1992 4.16017C14.1992 4.63867 14.0926 5.11717 13.9328 5.54251C13.773 5.96784 13.5067 6.34 13.187 6.60584C12.8674 6.92484 12.4945 7.1375 12.0684 7.297C11.6422 7.56284 11.1628 7.616 10.6301 7.616ZM10.6301 6.76534C11.003 6.76534 11.3226 6.71217 11.6422 6.55267C11.9618 6.44634 12.2282 6.23367 12.4413 6.021C12.6544 5.80834 12.8674 5.48934 12.974 5.22351C13.0805 4.90451 13.187 4.58551 13.187 4.21334C13.187 3.84117 13.1338 3.52218 12.974 3.20318C12.8674 2.88418 12.6544 2.61834 12.4413 2.40568C12.2282 2.19301 11.9086 1.98034 11.6422 1.87401C11.3226 1.76768 11.003 1.66134 10.6301 1.66134C10.2572 1.66134 9.88433 1.71451 9.56471 1.87401C9.24509 1.98034 8.97875 2.19301 8.7124 2.40568C8.49932 2.61834 8.28624 2.93734 8.1797 3.20318C8.07316 3.52218 7.96662 3.84117 7.96662 4.21334C7.96662 4.58551 8.01989 4.90451 8.1797 5.22351C8.28624 5.54251 8.49932 5.80834 8.7124 6.021C8.92548 6.23367 9.24509 6.44634 9.56471 6.55267C9.88433 6.71217 10.2572 6.76534 10.6301 6.76534Z" fill="#424242"/>
<path d="M17.1812 7.57292L14.9438 0.873932H15.956L18.0335 7.04126H17.5541L19.6848 0.873932H20.5904L22.668 7.04126H22.1885L24.266 0.873932H25.1716L22.9343 7.57292H21.8689L19.8979 1.83093H20.1643L18.1933 7.57292H17.1812Z" fill="#424242"/>
<path d="M27.4103 6.72226H31.299V7.57292H26.4514V0.873932H31.1924V1.7246H27.4103V6.72226ZM27.3037 3.74493H30.7663V4.54243H27.3037V3.74493Z" fill="#424242"/>
<path d="M32.8967 7.57292V0.873932H35.5069C36.0929 0.873932 36.5723 0.980265 36.9985 1.13976C37.4246 1.29926 37.7443 1.61826 37.9573 1.93726C38.1704 2.30943 38.277 2.6816 38.277 3.21326C38.277 3.69176 38.1704 4.11709 37.9573 4.43609C37.7443 4.80826 37.4246 5.07409 36.9985 5.23359C36.5723 5.39309 36.0929 5.49943 35.5069 5.49943H33.4294L33.8556 5.07409V7.57292H32.8967ZM33.8556 5.18043L33.4294 4.70193H35.5069C36.1462 4.70193 36.5723 4.59559 36.892 4.32976C37.2116 4.06393 37.3714 3.69176 37.3714 3.21326C37.3714 2.73476 37.2116 2.3626 36.892 2.09676C36.5723 1.83093 36.0929 1.7246 35.5069 1.7246H33.4294L33.8556 1.2461V5.18043ZM37.3714 7.57292L35.6668 5.12726H36.6789L38.3835 7.57292H37.3714Z" fill="#424242"/>
<path d="M40.8336 6.72226H44.7223V7.57292H39.8748V0.873932H44.6158V1.7246H40.8336V6.72226ZM40.7271 3.74493H44.1896V4.54243H40.7271V3.74493Z" fill="#424242"/>
<path d="M46.2671 7.57292V0.873932H49.0904C49.7829 0.873932 50.4221 1.03343 51.0081 1.29927C51.5408 1.5651 51.9669 1.99043 52.2866 2.46893C52.6062 2.94743 52.766 3.53226 52.766 4.22343C52.766 4.86143 52.6062 5.44626 52.2866 5.97792C51.9669 6.45642 51.5408 6.88176 51.0081 7.14759C50.4754 7.41342 49.8362 7.57292 49.0904 7.57292H46.2671ZM47.2259 6.72226H49.0371C49.5698 6.72226 50.0492 6.61592 50.4754 6.40326C50.9015 6.19059 51.2212 5.87159 51.4342 5.49943C51.6473 5.12726 51.7539 4.70193 51.7539 4.17026C51.7539 3.69176 51.6473 3.21326 51.4342 2.8411C51.2212 2.46893 50.9015 2.14993 50.4754 1.93726C50.0492 1.7246 49.5698 1.61827 49.0371 1.61827H47.2259V6.72226Z" fill="#424242"/>
<path d="M56.7625 7.57292V0.873932H59.7988C60.5979 0.873932 61.1838 1.03343 61.5567 1.35243C61.9829 1.67143 62.196 2.09676 62.196 2.62843C62.196 3.0006 62.0894 3.3196 61.9296 3.53226C61.7698 3.79809 61.5567 3.95759 61.2904 4.11709C61.024 4.27659 60.7044 4.32976 60.3848 4.32976L60.5446 4.06393C60.9175 4.06393 61.2904 4.11709 61.5567 4.27659C61.8231 4.43609 62.0894 4.59559 62.2492 4.86143C62.409 5.12726 62.5156 5.44626 62.5156 5.81843C62.5156 6.40326 62.3025 6.82859 61.8763 7.14759C61.4502 7.46659 60.8109 7.62609 59.9586 7.62609H56.7625V7.57292ZM57.7213 6.77542H59.9054C60.4381 6.77542 60.8642 6.66909 61.1306 6.50959C61.3969 6.35009 61.5567 6.03109 61.5567 5.65893C61.5567 5.28676 61.3969 4.96776 61.1306 4.80826C60.8642 4.64876 60.4381 4.54243 59.9054 4.54243H57.6148V3.74493H59.6923C60.1717 3.74493 60.5446 3.6386 60.811 3.4791C61.0773 3.3196 61.2371 3.05376 61.2371 2.6816C61.2371 2.30943 61.0773 2.0436 60.811 1.8841C60.5446 1.7246 60.1717 1.61826 59.6923 1.61826H57.7213V6.77542Z" fill="#424242"/>
<path d="M65.6566 7.57292V5.02093L65.8697 5.60576L62.9932 0.873932H64.0053L66.4557 4.86143H65.923L68.3734 0.873932H69.3323L66.4557 5.60576L66.6688 5.02093V7.57292H65.6566Z" fill="#424242"/>
</svg>
