<svg width="92" height="39" viewBox="0 0 92 39" fill="none" xmlns="http://www.w3.org/2000/svg">
<path d="M90.6799 0.245239C87.1527 4.10797 83.7074 9.72279 81.1694 14.3635C82.3497 14.4988 85.0173 14.7829 86.2794 14.8235C84.9286 18.4359 82.8409 22.2716 82.1928 26.1275C85.6722 21.771 89.3973 15.7638 91.7783 10.6496C90.5843 10.5481 89.1994 10.4196 88.0055 10.3857C87.9236 10.379 90.3524 1.72674 90.6799 0.245239Z" fill="#F7931E"/>
<path d="M82.3156 25.4849C82.4248 24.8422 82.5681 24.1996 82.6909 23.6516C82.8205 23.1036 82.9638 22.5151 83.1411 21.8589C83.2981 21.2907 83.4618 20.6954 83.6392 20.0933C83.7483 19.7145 83.8711 19.3289 83.9871 18.9568C84.0485 18.7539 84.1167 18.5509 84.1781 18.348C84.6011 17.0423 85.0651 15.7097 85.5972 14.2688C85.1333 14.2552 84.7444 14.2282 84.3828 14.2011L81.4901 13.944L82.9024 11.4478C83.455 10.4669 84.0212 9.51307 84.5738 8.60659C85.2015 7.59186 85.7814 6.67861 86.3545 5.82623C86.6683 5.36623 86.9685 4.91298 87.2892 4.4665C87.4461 4.24326 87.603 4.01326 87.7736 3.79002L87.9509 3.55325C88.0533 3.41119 88.1624 3.26912 88.2648 3.12706C88.6332 2.63999 88.9606 2.20704 89.2813 1.81468C89.5883 1.43585 89.9567 0.982606 90.3661 0.536126L90.5571 0.326416L90.4957 0.61054C90.3592 1.21938 90.2023 1.80115 90.0659 2.28146C89.9226 2.78882 89.7589 3.32324 89.5747 3.91178C89.5201 4.08767 89.4655 4.25679 89.4041 4.42591L89.3086 4.7168C89.2199 4.98739 89.1312 5.25122 89.0357 5.51505C88.8583 6.04271 88.6605 6.5636 88.4626 7.09803C88.101 8.07216 87.6917 9.09366 87.2278 10.2099C87.2005 10.2707 87.1322 10.4263 87.1322 10.4263C87.1732 10.4263 87.2141 10.4263 87.2619 10.4263C87.5825 10.4331 87.9032 10.4534 88.2238 10.4737L90.9733 10.6834L89.7793 13.1661C88.7014 15.3985 87.5757 17.5362 86.4295 19.5183C86.3204 19.7009 86.218 19.8836 86.1089 20.0595C85.9179 20.3909 85.7132 20.7292 85.5085 21.0607C85.2151 21.5477 84.915 22.0213 84.5534 22.5828C84.1918 23.1375 83.8575 23.6313 83.5437 24.0846C83.223 24.531 82.8546 25.0519 82.4589 25.5458L82.2747 25.7758L82.3156 25.4849Z" fill="#FFCE00"/>
<path d="M90.4274 0.597014C90.3046 1.16526 90.1545 1.71321 89.9976 2.26793C89.8407 2.81588 89.677 3.35707 89.5064 3.89826C89.4245 4.16885 89.329 4.43268 89.2403 4.70328C89.1517 4.97387 89.063 5.2377 88.9675 5.50153C88.7832 6.03595 88.5922 6.55684 88.3944 7.0845C88.0055 8.13305 87.5893 9.16807 87.1595 10.1896C87.1118 10.2978 87.064 10.406 87.0162 10.521C87.0981 10.521 87.18 10.521 87.2619 10.5278C87.5825 10.5346 87.8963 10.5549 88.217 10.5752L90.8504 10.7781L89.7043 13.1526C88.6673 15.3106 87.5552 17.4279 86.3545 19.498C86.0475 20.0121 85.7541 20.533 85.4334 21.0404C85.1196 21.5545 84.799 22.0619 84.4783 22.5625C84.1508 23.0631 83.8165 23.5637 83.4686 24.0575C83.1206 24.5513 82.7659 25.0384 82.3838 25.5187C82.4862 24.8963 82.6226 24.2943 82.7591 23.6922C82.9023 23.0901 83.0524 22.4948 83.2093 21.8995C83.3731 21.311 83.53 20.7224 83.7074 20.1339C83.8711 19.5453 84.0621 18.9703 84.2395 18.3886C84.6898 16.9747 85.181 15.5879 85.6995 14.2079C85.2629 14.1944 84.8194 14.1741 84.3828 14.1335L81.6129 13.8899L82.9569 11.5087C83.4959 10.5481 84.0553 9.60102 84.6284 8.66747C85.2015 7.73393 85.795 6.80714 86.4091 5.89389C86.7161 5.44064 87.0231 4.98063 87.3437 4.53415C87.5006 4.31091 87.6575 4.08091 87.8281 3.86443C87.9918 3.64119 88.1488 3.41795 88.3193 3.19471C88.6536 2.755 88.9879 2.31528 89.3359 1.88233C89.6906 1.43586 90.0454 1.00967 90.4274 0.597014ZM90.7003 0.0625916L90.3183 0.475247C89.9089 0.921727 89.5405 1.37497 89.2335 1.7538C88.9129 2.15293 88.5786 2.57911 88.217 3.07295C88.1078 3.21501 88.0055 3.35707 87.9032 3.49913C87.8417 3.58031 87.7872 3.66149 87.7258 3.7359C87.562 3.95914 87.4051 4.18238 87.2414 4.41239C86.9207 4.86563 86.6137 5.31211 86.2999 5.77212C85.7268 6.62449 85.1401 7.53774 84.5124 8.55247C83.953 9.46573 83.3935 10.4196 82.8341 11.4005L81.4901 13.7817L81.3605 14.0117L81.6061 14.032L84.376 14.2755C84.7103 14.3026 85.0719 14.3296 85.488 14.3432C84.9695 15.7435 84.5124 17.0424 84.1031 18.3141C84.0417 18.5171 83.9734 18.72 83.912 18.923C83.7961 19.295 83.6733 19.6806 83.5641 20.0662C83.3867 20.6683 83.2162 21.2636 83.0661 21.8319C82.8887 22.4948 82.7454 23.0834 82.6158 23.6245C82.493 24.1793 82.3497 24.8152 82.2406 25.4646L82.1382 26.0531L82.4998 25.5999C82.8955 25.106 83.2707 24.5852 83.5846 24.1319C83.8984 23.6787 84.2327 23.1848 84.5943 22.6301C84.9559 22.0619 85.2629 21.5883 85.5563 21.1013C85.7609 20.7698 85.9656 20.4315 86.1566 20.1001C86.2658 19.9174 86.3681 19.7415 86.4773 19.5589C87.6234 17.5768 88.756 15.4323 89.8339 13.1999L90.9801 10.8255L91.0892 10.6022L90.8573 10.5819L88.2238 10.379C87.9032 10.3519 87.5825 10.3384 87.2619 10.3316C87.255 10.3316 87.255 10.3316 87.2482 10.3316C87.2618 10.2978 87.2755 10.264 87.2891 10.2302C87.7599 9.11395 88.1624 8.09246 88.5308 7.11832C88.7287 6.5839 88.9265 6.06301 89.1039 5.53535C89.1994 5.26476 89.2949 5.00093 89.3768 4.7371C89.4109 4.64239 89.4382 4.54768 89.4723 4.44621C89.5269 4.27709 89.5883 4.1012 89.6429 3.93208C89.8339 3.34354 89.9908 2.80235 90.1341 2.30176C90.2705 1.81469 90.4274 1.23967 90.5639 0.624074L90.7003 0.0625916Z" fill="#FFCE00"/>
<path d="M27.4021 37.6616H11.9153L12.618 33.9612L22.9539 20.188H15.7836L16.7865 15.3105H31.5502L30.7724 19.0583L20.2932 32.7909H28.4255L27.4021 37.6616Z" fill="#FFCE00"/>
<path d="M40.0372 33.4742H33.3308L31.4615 37.6616H25.3827L36.5237 15.3105H44.0556L45.8977 37.6616H40.1941L40.0372 33.4742ZM35.473 28.7049H39.8598L39.6074 22.2242L39.5801 20.9118C39.5801 20.1474 39.6006 19.4777 39.6415 18.9094C39.4027 19.7889 39.0957 20.6345 38.7273 21.4463L35.473 28.7049Z" fill="black"/>
<path d="M64.0112 22.0077C64.0112 24.5784 63.1584 26.5943 61.446 28.0555C59.7335 29.5167 57.3935 30.2473 54.4121 30.2473H53.1226L51.6285 37.6616H45.7749L50.4005 15.3105H55.988C58.5737 15.3105 60.559 15.8923 61.944 17.0491C63.3221 18.2059 64.0112 19.8565 64.0112 22.0077ZM54.1733 25.3563H55.1148C56.0221 25.3563 56.759 25.0587 57.3184 24.4634C57.8778 23.8681 58.1576 23.1104 58.1576 22.1904C58.1576 21.5883 57.9802 21.108 57.6186 20.736C57.257 20.3707 56.7658 20.188 56.1381 20.188H55.2512L54.1733 25.3563Z" fill="black"/>
<path d="M80.4804 22.0077C80.4804 24.5784 79.6276 26.5943 77.9152 28.0555C76.2028 29.5167 73.8627 30.2473 70.8813 30.2473H69.5919L68.0978 37.6616H62.2441L66.8697 15.3105H72.4573C75.043 15.3105 77.0283 15.8923 78.4132 17.0491C79.7914 18.2059 80.4804 19.8565 80.4804 22.0077ZM70.6425 25.3563H71.584C72.4914 25.3563 73.2282 25.0587 73.7877 24.4634C74.3471 23.8681 74.6268 23.1104 74.6268 22.1904C74.6268 21.5883 74.4494 21.108 74.0878 20.736C73.7262 20.3707 73.235 20.188 72.6074 20.188H71.7205L70.6425 25.3563Z" fill="black"/>
<path d="M30.711 19.0312L21.8146 32.8044H20.0203L30.711 19.0312Z" fill="#F7931E"/>
<path d="M25.3622 37.6345L12.4815 38.7981L11.9562 37.6345H25.3622Z" fill="#F7931E"/>
<path d="M14.2691 20.3233L1.96826 21.8183L2.01602 21.0133L14.2691 20.3233Z" fill="#F7931E"/>
<path d="M16.1997 29.4626L2.98474 31.0794L3.0325 30.2135L16.1997 29.4626Z" fill="#F7931E"/>
<path d="M9.61613 25.3834L0.22168 26.5267L0.255792 25.9111L9.61613 25.3834Z" fill="#F7931E"/>
</svg>
