<svg width="18" height="16" viewBox="0 0 18 16" fill="none" xmlns="http://www.w3.org/2000/svg">
<path d="M16.5003 8.18333C16.5003 3.60833 12.9503 0.5 9.00033 0.5C5.09199 0.5 1.50033 3.54167 1.50033 8.23333C1.00033 8.51667 0.666992 9.05 0.666992 9.66667V11.3333C0.666992 12.25 1.41699 13 2.33366 13H3.16699V7.91667C3.16699 4.69167 5.77533 2.08333 9.00033 2.08333C12.2253 2.08333 14.8337 4.69167 14.8337 7.91667V13.8333H8.16699V15.5H14.8337C15.7503 15.5 16.5003 14.75 16.5003 13.8333V12.8167C16.992 12.5583 17.3337 12.05 17.3337 11.45V9.53333C17.3337 8.95 16.992 8.44167 16.5003 8.18333Z" fill="white"/>
</svg>
