<svg width="16" height="17" viewBox="0 0 16 17" fill="none" xmlns="http://www.w3.org/2000/svg">
<path d="M13.9504 9.24683C13.9838 8.99683 14.0004 8.7385 14.0004 8.4635C14.0004 8.19683 13.9838 7.93017 13.9421 7.68017L15.6338 6.3635C15.7838 6.24683 15.8254 6.02183 15.7338 5.85517L14.1338 3.0885C14.0338 2.90517 13.8254 2.84683 13.6421 2.90517L11.6504 3.70517C11.2337 3.3885 10.7921 3.12183 10.3004 2.92183L10.0004 0.805167C9.96708 0.605168 9.80042 0.463501 9.60042 0.463501H6.40042C6.20042 0.463501 6.04208 0.605168 6.00875 0.805167L5.70875 2.92183C5.21708 3.12183 4.76708 3.39683 4.35875 3.70517L2.36708 2.90517C2.18375 2.8385 1.97542 2.90517 1.87542 3.0885L0.28375 5.85517C0.18375 6.03017 0.217084 6.24683 0.38375 6.3635L2.07542 7.68017C2.03375 7.93017 2.00042 8.20517 2.00042 8.4635C2.00042 8.72183 2.01708 8.99683 2.05875 9.24683L0.367084 10.5635C0.217084 10.6802 0.175417 10.9052 0.267084 11.0718L1.86708 13.8385C1.96708 14.0218 2.17542 14.0802 2.35875 14.0218L4.35042 13.2218C4.76708 13.5385 5.20875 13.8052 5.70042 14.0052L6.00042 16.1218C6.04208 16.3218 6.20042 16.4635 6.40042 16.4635H9.60042C9.80042 16.4635 9.96708 16.3218 9.99208 16.1218L10.2921 14.0052C10.7837 13.8052 11.2338 13.5385 11.6421 13.2218L13.6338 14.0218C13.8171 14.0885 14.0254 14.0218 14.1254 13.8385L15.7254 11.0718C15.8254 10.8885 15.7838 10.6802 15.6254 10.5635L13.9504 9.24683ZM8.00042 11.4635C6.35042 11.4635 5.00042 10.1135 5.00042 8.4635C5.00042 6.8135 6.35042 5.4635 8.00042 5.4635C9.65042 5.4635 11.0004 6.8135 11.0004 8.4635C11.0004 10.1135 9.65042 11.4635 8.00042 11.4635Z" fill="white"/>
</svg>
