<svg width="158" height="142" viewBox="0 0 158 142" fill="none" xmlns="http://www.w3.org/2000/svg">
<path d="M149.481 72.7248C149.481 29.6845 116.083 0.442261 78.9229 0.442261C42.1545 0.442261 8.36514 29.0573 8.36514 73.1951C3.66129 75.8606 0.525391 80.8781 0.525391 86.6795V102.359C0.525391 110.983 7.58117 118.039 16.2049 118.039H24.0446V70.216C24.0446 39.8762 48.5831 15.3378 78.9229 15.3378C109.263 15.3378 133.801 39.8762 133.801 70.216V125.878H71.0831V141.558H133.801C142.425 141.558 149.481 134.502 149.481 125.878V116.314C154.106 113.883 157.32 109.101 157.32 103.457V85.4251C157.32 79.9373 154.106 75.1551 149.481 72.7248Z" fill="#CFCFCF"/>
<path d="M55.4032 86.6795C59.733 86.6795 63.243 83.1695 63.243 78.8397C63.243 74.51 59.733 71 55.4032 71C51.0735 71 47.5635 74.51 47.5635 78.8397C47.5635 83.1695 51.0735 86.6795 55.4032 86.6795Z" fill="#CFCFCF"/>
<path d="M102.442 86.6795C106.772 86.6795 110.282 83.1695 110.282 78.8397C110.282 74.51 106.772 71 102.442 71C98.1125 71 94.6025 74.51 94.6025 78.8397C94.6025 83.1695 98.1125 86.6795 102.442 86.6795Z" fill="#CFCFCF"/>
<path d="M125.961 63.3955C122.198 41.0522 102.756 23.9615 79.3149 23.9615C55.5605 23.9615 30.0029 43.6393 32.0412 74.5279C51.4054 66.6098 65.9873 49.3623 70.1424 28.3518C80.4125 48.9703 101.501 63.1603 125.961 63.3955Z" fill="#CFCFCF"/>
</svg>
