<svg width="57" height="23" viewBox="0 0 57 23" fill="none" xmlns="http://www.w3.org/2000/svg">
<g clip-path="url(#clip0_111_4613)">
<path d="M51.0919 15.5534C51.1571 15.1572 51.2439 14.7684 51.3236 14.4309C51.4032 14.0934 51.4901 13.7413 51.5987 13.3378C51.6928 12.993 51.7942 12.6261 51.9028 12.2593C51.9679 12.0245 52.0476 11.7898 52.1127 11.5623C52.1489 11.4376 52.1924 11.3129 52.2286 11.1882C52.4892 10.3885 52.7715 9.57414 53.1046 8.69375C52.8222 8.68642 52.5833 8.67174 52.3589 8.64973L50.5779 8.49567L51.4467 6.96967C51.7869 6.36808 52.1344 5.78849 52.4747 5.23092C52.8584 4.60731 53.2204 4.04973 53.5752 3.52884C53.7634 3.25005 53.9516 2.97127 54.1543 2.69248C54.2485 2.55308 54.3498 2.41369 54.4512 2.28163L54.5598 2.1349C54.6249 2.04686 54.6901 1.95883 54.7553 1.87079C54.9797 1.56999 55.1824 1.31321 55.3851 1.06377C55.5734 0.829001 55.805 0.557549 56.0512 0.286098L56.167 0.161377L56.1308 0.337454C56.0512 0.711616 55.9498 1.06377 55.8629 1.35723C55.7761 1.66536 55.6747 1.99551 55.5589 2.355C55.5227 2.45771 55.4937 2.56776 55.4575 2.67047L55.3996 2.84654C55.3489 3.00795 55.291 3.17669 55.2331 3.33809C55.1245 3.6609 55.0014 3.97637 54.8783 4.30651C54.6539 4.90077 54.4077 5.52438 54.1181 6.20667C54.1037 6.24335 54.0602 6.33873 54.0602 6.33873C54.0892 6.33873 54.1109 6.33873 54.1399 6.33873C54.3353 6.34607 54.5381 6.3534 54.7335 6.36808L56.4277 6.4928L55.6892 8.01146C55.0231 9.37605 54.3353 10.682 53.6258 11.8998C53.5607 12.0099 53.4955 12.1199 53.4304 12.23C53.3145 12.4354 53.1842 12.6408 53.0611 12.8462C52.8801 13.1397 52.6919 13.4331 52.4747 13.778C52.2503 14.1154 52.0476 14.4162 51.8521 14.695C51.6566 14.9665 51.4249 15.2893 51.186 15.5901L51.0774 15.7295L51.0919 15.5534Z" fill="black"/>
<path d="M56.0874 0.322807C56.0078 0.667624 55.9209 1.0051 55.8268 1.34258C55.7327 1.68006 55.6313 2.01021 55.5227 2.34035C55.472 2.50175 55.4141 2.67049 55.3634 2.8319C55.3128 2.9933 55.2549 3.15471 55.1969 3.32345C55.0811 3.64625 54.9653 3.96906 54.8422 4.29187C54.6033 4.93014 54.3426 5.56842 54.082 6.19203C54.053 6.25805 54.0241 6.32408 53.9951 6.39011C54.0458 6.39011 54.0965 6.39011 54.1472 6.39011C54.3426 6.39745 54.5381 6.40478 54.7336 6.41946L56.3553 6.54418L55.653 7.99681C55.0159 9.31738 54.3282 10.6086 53.5897 11.8778C53.4015 12.1933 53.2205 12.5088 53.025 12.8242C52.8368 13.1397 52.634 13.4478 52.4313 13.756C52.2286 14.0641 52.0259 14.3722 51.8087 14.673C51.5915 14.9738 51.3743 15.2746 51.1426 15.5681C51.2078 15.1866 51.2874 14.8198 51.3743 14.453C51.4612 14.0861 51.5553 13.7193 51.6494 13.3598C51.7508 13.0003 51.8521 12.6408 51.9535 12.2813C52.0549 11.9219 52.1707 11.5697 52.2865 11.2175C52.5689 10.3518 52.8657 9.5008 53.1843 8.6571C52.9164 8.64976 52.6413 8.63509 52.3734 8.61308L50.6648 8.46635L51.4974 7.00638C51.8304 6.41946 52.1707 5.83987 52.5254 5.26762C52.8802 4.69538 53.2422 4.13046 53.6259 3.57289C53.8141 3.2941 54.0024 3.01531 54.2051 2.74386C54.2992 2.60447 54.4006 2.46507 54.5019 2.33301C54.6033 2.19362 54.7046 2.06156 54.806 1.92217C55.0087 1.65072 55.2187 1.3866 55.4358 1.12249C55.6386 0.836364 55.8558 0.579585 56.0874 0.322807ZM56.2612 0L56.0295 0.256778C55.7761 0.52823 55.5517 0.807018 55.3562 1.04179C55.1607 1.28389 54.9508 1.54801 54.7263 1.8488C54.6612 1.93684 54.596 2.02488 54.5309 2.11292C54.4947 2.16427 54.4585 2.20829 54.4223 2.25965C54.3209 2.39904 54.2268 2.5311 54.1254 2.67049C53.93 2.94928 53.7417 3.22073 53.5463 3.50686C53.1915 4.02775 52.8295 4.58533 52.4458 5.20893C52.0983 5.76651 51.7508 6.35343 51.4105 6.94769L50.5779 8.40766L50.4983 8.54705L50.6503 8.56172L52.3589 8.70845C52.5689 8.72313 52.7861 8.7378 53.0395 8.75247C52.7209 9.60351 52.4386 10.4032 52.1852 11.1809C52.149 11.3056 52.1055 11.4303 52.0693 11.555C51.9969 11.7825 51.9245 12.0172 51.8521 12.252C51.7435 12.6188 51.6422 12.9856 51.5481 13.3305C51.4395 13.734 51.3526 14.0935 51.273 14.4309C51.1933 14.7684 51.1064 15.1573 51.0413 15.5534L50.9834 15.9129L51.2078 15.6341C51.454 15.3333 51.6784 15.0105 51.8811 14.7391C52.0766 14.4603 52.2793 14.1595 52.5037 13.822C52.7282 13.4772 52.9164 13.1837 53.0974 12.8903C53.2277 12.6848 53.3508 12.4794 53.4666 12.274C53.5318 12.164 53.5969 12.0539 53.6621 11.9439C54.3716 10.726 55.0666 9.4201 55.7254 8.0555L56.4277 6.60287L56.4929 6.46348L56.3481 6.45614L54.7263 6.33142C54.5309 6.31675 54.3282 6.30941 54.1327 6.30207H54.1254C54.1327 6.28006 54.1399 6.25805 54.1544 6.24338C54.444 5.56108 54.6974 4.93748 54.9218 4.34322C55.0449 4.01308 55.1607 3.69761 55.2766 3.3748C55.3345 3.2134 55.3924 3.04466 55.4431 2.88325C55.4648 2.82456 55.4793 2.76587 55.501 2.70718C55.5372 2.60447 55.5734 2.49442 55.6024 2.39171C55.7182 2.03222 55.8196 1.70207 55.9064 1.39394C55.9933 1.10048 56.0874 0.740989 56.1743 0.366826L56.2612 0Z" fill="black"/>
<path d="M17.253 23H7.71094L8.14533 20.7403L14.5164 12.3107H10.0928L10.7082 9.32471H19.8087L19.3308 11.6137L12.8729 20.014H17.8756L17.253 23Z" fill="black"/>
<path d="M25.0358 20.4395H20.9018L19.7507 23H16.0005L22.8711 9.32471H27.5118L28.6485 23H25.1299L25.0358 20.4395ZM22.2267 17.5196H24.9272L24.7679 13.5579L24.7462 12.7509C24.7462 12.2813 24.7607 11.8778 24.7824 11.5257C24.6376 12.0612 24.4494 12.5821 24.2177 13.081L22.2267 17.5196Z" fill="black"/>
<path d="M39.8124 13.4258C39.8124 14.9958 39.2839 16.2284 38.2269 17.1234C37.1698 18.0185 35.7291 18.466 33.8974 18.466H33.1011L32.1816 23H28.5762L31.4287 9.32471H34.8676C36.4603 9.32471 37.6839 9.67686 38.5382 10.3885C39.3852 11.0928 39.8124 12.1052 39.8124 13.4258ZM33.7526 15.4727H34.3318C34.8893 15.4727 35.3454 15.2893 35.6857 14.9225C36.0332 14.5556 36.1997 14.0934 36.1997 13.5359C36.1997 13.169 36.0911 12.8682 35.8667 12.6482C35.6422 12.4207 35.3382 12.3107 34.9545 12.3107H34.4115L33.7526 15.4727Z" fill="black"/>
<path d="M49.9625 13.4258C49.9625 14.9958 49.434 16.2284 48.377 17.1234C47.32 18.0185 45.8793 18.466 44.0476 18.466H43.2512L42.3317 23H38.7263L41.5788 9.32471H45.0177C46.6105 9.32471 47.834 9.67686 48.6883 10.3885C49.5354 11.0928 49.9625 12.1052 49.9625 13.4258ZM43.9028 15.4727H44.482C45.0394 15.4727 45.4956 15.2893 45.8358 14.9225C46.1833 14.5556 46.3498 14.0934 46.3498 13.5359C46.3498 13.169 46.2413 12.8682 46.0168 12.6482C45.7924 12.4207 45.4883 12.3107 45.1046 12.3107H44.5616L43.9028 15.4727Z" fill="black"/>
<path d="M9.1587 12.3914L1.57861 13.3084L1.60757 12.8169L9.1587 12.3914Z" fill="black"/>
<path d="M10.3462 17.9819L2.20142 18.9724L2.23762 18.4441L10.3462 17.9819Z" fill="black"/>
<path d="M6.29186 15.4873L0.5 16.1843L0.521719 15.8101L6.29186 15.4873Z" fill="black"/>
</g>
<defs>
<clipPath id="clip0_111_4613">
<rect width="56" height="23" fill="white" transform="translate(0.5)"/>
</clipPath>
</defs>
</svg>
