<?xml version="1.0" encoding="utf-8"?>
<!-- Generator: Adobe Illustrator 24.0.2, SVG Export Plug-In . SVG Version: 6.00 Build 0)  -->
<svg version="1.0" id="Layer_1" xmlns="http://www.w3.org/2000/svg" xmlns:xlink="http://www.w3.org/1999/xlink" x="0px" y="0px"
	 viewBox="0 0 1080 1080" style="enable-background:new 0 0 1080 1080;" xml:space="preserve">
<style type="text/css">
	.st0{fill:#EE4498;}
	.st1{fill:#FFFFFF;}
	.st2{fill:#212427;}
	.st3{fill:#010101;}
</style>
<rect x="4400" class="st0" width="1080" height="1080"/>
<g>
	<g>
		<path class="st0" d="M852.1,595c0.9-5.4,2.1-10.7,3.2-15.3c1.1-4.6,2.3-9.4,3.8-14.9c1.3-4.7,2.7-9.7,4.2-14.7
			c0.9-3.2,2-6.4,2.9-9.5c0.5-1.7,1.1-3.4,1.6-5.1c3.6-10.9,7.5-22,12.1-34c-3.9-0.1-7.2-0.3-10.3-0.6l-24.6-2.1l12-20.8
			c4.7-8.2,9.5-16.1,14.2-23.7c5.3-8.5,10.3-16.1,15.2-23.2c2.6-3.8,5.2-7.6,8-11.4c1.3-1.9,2.7-3.8,4.1-5.6l1.5-2
			c0.9-1.2,1.8-2.4,2.7-3.6c3.1-4.1,5.9-7.6,8.7-11c2.6-3.2,5.8-6.9,9.2-10.6l1.6-1.7l-0.5,2.4c-1.1,5.1-2.5,9.9-3.7,13.9
			c-1.2,4.2-2.6,8.7-4.2,13.6c-0.5,1.4-0.9,2.9-1.4,4.3l-0.8,2.4c-0.7,2.2-1.5,4.5-2.3,6.7c-1.5,4.4-3.2,8.7-4.9,13.2
			c-3.1,8.1-6.5,16.6-10.5,25.9c-0.2,0.5-0.8,1.8-0.8,1.8c0.4,0,0.7,0,1.1,0c2.7,0.1,5.5,0.2,8.2,0.4l23.4,1.7l-10.2,20.7
			c-9.2,18.6-18.7,36.4-28.5,53c-0.9,1.5-1.8,3-2.7,4.5c-1.6,2.8-3.4,5.6-5.1,8.4c-2.5,4-5.1,8-8.1,12.7c-3.1,4.6-5.9,8.7-8.6,12.5
			c-2.7,3.7-5.9,8.1-9.2,12.2l-1.5,1.9L852.1,595z"/>
		<path class="st0" d="M921.1,387.5c-1.1,4.7-2.3,9.3-3.6,13.9c-1.3,4.6-2.7,9.1-4.2,13.6c-0.7,2.2-1.5,4.5-2.2,6.7
			c-0.7,2.2-1.5,4.4-2.3,6.7c-1.6,4.4-3.2,8.8-4.9,13.2c-3.3,8.7-6.9,17.4-10.5,25.9c-0.4,0.9-0.8,1.8-1.2,2.7c0.7,0,1.4,0,2.1,0
			c2.7,0.1,5.4,0.2,8.1,0.4l22.4,1.7L915,492c-8.8,18-18.3,35.6-28.5,52.9c-2.6,4.3-5.1,8.6-7.8,12.9c-2.6,4.3-5.4,8.5-8.2,12.7
			c-2.8,4.2-5.6,8.4-8.6,12.5c-3,4.1-6,8.2-9.2,12.2c0.9-5.2,2-10.2,3.2-15.2c1.2-5,2.5-10,3.8-14.9c1.4-4.9,2.8-9.8,4.2-14.7
			c1.4-4.9,3-9.7,4.6-14.5c3.9-11.8,8-23.4,12.4-34.9c-3.7-0.1-7.5-0.3-11.2-0.6l-23.6-2l11.5-19.9c4.6-8,9.3-15.9,14.2-23.7
			c4.9-7.8,9.9-15.5,15.2-23.1c2.6-3.8,5.2-7.6,8-11.3c1.3-1.9,2.7-3.8,4.1-5.6c1.4-1.9,2.8-3.7,4.2-5.6c2.8-3.7,5.7-7.3,8.7-10.9
			C914.9,394.5,917.9,390.9,921.1,387.5 M923.5,383.1l-3.2,3.5c-3.5,3.7-6.6,7.5-9.3,10.7c-2.7,3.3-5.6,6.9-8.7,11
			c-0.9,1.2-1.8,2.4-2.7,3.6c-0.5,0.7-1,1.3-1.5,2c-1.4,1.9-2.7,3.7-4.1,5.6c-2.7,3.8-5.3,7.5-8,11.4c-4.9,7.1-9.9,14.7-15.2,23.2
			c-4.8,7.6-9.6,15.6-14.3,23.7l-11.5,19.9l-1.1,1.9l2.1,0.2l23.6,2c2.9,0.2,5.9,0.4,9.4,0.6c-4.4,11.6-8.3,22.5-11.8,33.1
			c-0.5,1.7-1.1,3.4-1.6,5.1c-1,3.1-2,6.3-3,9.5c-1.5,5-2.9,10-4.2,14.7c-1.5,5.5-2.7,10.4-3.8,15c-1.1,4.6-2.3,9.9-3.2,15.3
			l-0.8,4.9l3.1-3.8c3.4-4.1,6.5-8.5,9.3-12.2c2.7-3.8,5.5-7.9,8.6-12.5c3.1-4.7,5.7-8.7,8.2-12.7c1.8-2.8,3.5-5.6,5.1-8.4
			c0.9-1.5,1.8-3,2.7-4.5c9.8-16.6,19.4-34.4,28.5-53l9.7-19.8l0.9-1.9l-2-0.1l-22.4-1.7c-2.7-0.2-5.5-0.3-8.2-0.4c0,0-0.1,0-0.1,0
			c0.1-0.3,0.2-0.6,0.4-0.8c4-9.3,7.5-17.8,10.6-25.9c1.7-4.5,3.3-8.8,4.9-13.2c0.8-2.2,1.6-4.5,2.3-6.7c0.3-0.8,0.5-1.6,0.8-2.4
			c0.5-1.4,1-2.9,1.4-4.3c1.6-4.9,3-9.4,4.2-13.6c1.2-4,2.5-8.9,3.7-14L923.5,383.1L923.5,383.1z"/>
	</g>
	<g>
		<path class="st0" d="M384.7,696.5H252.9l6-30.8l88-114.9h-61.1l8.5-40.7H420l-6.6,31.2l-89.2,114.5h69.2L384.7,696.5z"/>
		<path class="st0" d="M492.2,661.6h-57.1l-15.9,34.9h-51.8l94.8-186.4h64.1l15.7,186.4h-48.6L492.2,661.6z M453.4,621.8h37.3
			l-2.2-54l-0.3-11c0-6.4,0.2-11.9,0.5-16.7c-2,7.3-4.6,14.4-7.8,21.2L453.4,621.8z"/>
		<path class="st0" d="M696.3,566c0,21.4-7.3,38.2-21.9,50.4c-14.6,12.2-34.5,18.3-59.8,18.3h-11l-12.7,61.8H541l39.4-186.4H628
			c22,0,38.9,4.8,50.7,14.5C690.4,534.3,696.3,548.1,696.3,566z M612.6,593.9h8c7.7,0,14-2.5,18.7-7.5c4.8-5,7.1-11.3,7.1-18.9
			c0-5-1.5-9.1-4.6-12.1c-3.1-3.1-7.3-4.6-12.6-4.6h-7.5L612.6,593.9z"/>
		<path class="st0" d="M836.5,566c0,21.4-7.3,38.2-21.9,50.4c-14.6,12.2-34.5,18.3-59.8,18.3h-11l-12.7,61.8h-49.8l39.4-186.4h47.5
			c22,0,38.9,4.8,50.7,14.5C830.6,534.3,836.5,548.1,836.5,566z M752.8,593.9h8c7.7,0,14-2.5,18.7-7.5c4.8-5,7.1-11.3,7.1-18.9
			c0-5-1.5-9.1-4.6-12.1c-3.1-3.1-7.3-4.6-12.6-4.6h-7.5L752.8,593.9z"/>
	</g>
	<polygon class="st0" points="272.9,551.9 168.2,564.5 168.6,557.7 	"/>
	<polygon class="st0" points="289.3,628.2 176.8,641.6 177.3,634.4 	"/>
	<polygon class="st0" points="233.3,594.1 153.3,603.7 153.6,598.6 	"/>
</g>
<g>
	<g>
		<path class="st1" d="M5252.1,595c0.9-5.4,2.1-10.7,3.2-15.3c1.1-4.6,2.3-9.4,3.8-14.9c1.3-4.7,2.7-9.7,4.2-14.7
			c0.9-3.2,2-6.4,2.9-9.5c0.5-1.7,1.1-3.4,1.6-5.1c3.6-10.9,7.5-22,12.1-34c-3.9-0.1-7.2-0.3-10.3-0.6l-24.6-2.1l12-20.8
			c4.7-8.2,9.5-16.1,14.2-23.7c5.3-8.5,10.3-16.1,15.2-23.2c2.6-3.8,5.2-7.6,8-11.4c1.3-1.9,2.7-3.8,4.1-5.6l1.5-2
			c0.9-1.2,1.8-2.4,2.7-3.6c3.1-4.1,5.9-7.6,8.7-11c2.6-3.2,5.8-6.9,9.2-10.6l1.6-1.7l-0.5,2.4c-1.1,5.1-2.5,9.9-3.7,13.9
			c-1.2,4.2-2.6,8.7-4.2,13.6c-0.5,1.4-0.9,2.9-1.4,4.3l-0.8,2.4c-0.7,2.2-1.5,4.5-2.3,6.7c-1.5,4.4-3.2,8.7-4.9,13.2
			c-3.1,8.1-6.5,16.6-10.5,25.9c-0.2,0.5-0.8,1.8-0.8,1.8c0.4,0,0.7,0,1.1,0c2.7,0.1,5.5,0.2,8.2,0.4l23.4,1.7l-10.2,20.7
			c-9.2,18.6-18.7,36.4-28.5,53c-0.9,1.5-1.8,3-2.7,4.5c-1.6,2.8-3.4,5.6-5.1,8.4c-2.5,4-5.1,8-8.1,12.7c-3.1,4.6-5.9,8.7-8.6,12.5
			c-2.7,3.7-5.9,8.1-9.2,12.2l-1.5,1.9L5252.1,595z"/>
		<path class="st1" d="M5321.1,387.5c-1.1,4.7-2.3,9.3-3.6,13.9c-1.3,4.6-2.7,9.1-4.2,13.6c-0.7,2.2-1.5,4.5-2.2,6.7
			c-0.7,2.2-1.5,4.4-2.3,6.7c-1.6,4.4-3.2,8.8-4.9,13.2c-3.3,8.7-6.9,17.4-10.5,25.9c-0.4,0.9-0.8,1.8-1.2,2.7c0.7,0,1.4,0,2.1,0
			c2.7,0.1,5.4,0.2,8.1,0.4l22.4,1.7L5315,492c-8.8,18-18.3,35.6-28.5,52.9c-2.6,4.3-5.1,8.6-7.8,12.9c-2.6,4.3-5.4,8.5-8.2,12.7
			c-2.8,4.2-5.6,8.4-8.6,12.5c-3,4.1-6,8.2-9.2,12.2c0.9-5.2,2-10.2,3.2-15.2c1.2-5,2.5-10,3.8-14.9c1.4-4.9,2.8-9.8,4.2-14.7
			c1.4-4.9,3-9.7,4.6-14.5c3.9-11.8,8-23.4,12.4-34.9c-3.7-0.1-7.5-0.3-11.2-0.6l-23.6-2l11.5-19.9c4.6-8,9.3-15.9,14.2-23.7
			c4.9-7.8,9.9-15.5,15.2-23.1c2.6-3.8,5.2-7.6,8-11.3c1.3-1.9,2.7-3.8,4.1-5.6c1.4-1.9,2.8-3.7,4.2-5.6c2.8-3.7,5.7-7.3,8.7-10.9
			C5314.9,394.5,5317.9,390.9,5321.1,387.5 M5323.5,383.1l-3.2,3.5c-3.5,3.7-6.6,7.5-9.3,10.7c-2.7,3.3-5.6,6.9-8.7,11
			c-0.9,1.2-1.8,2.4-2.7,3.6c-0.5,0.7-1,1.3-1.5,2c-1.4,1.9-2.7,3.7-4.1,5.6c-2.7,3.8-5.3,7.5-8,11.4c-4.9,7.1-9.9,14.7-15.2,23.2
			c-4.8,7.6-9.6,15.6-14.3,23.7l-11.5,19.9l-1.1,1.9l2.1,0.2l23.6,2c2.9,0.2,5.9,0.4,9.4,0.6c-4.4,11.6-8.3,22.5-11.8,33.1
			c-0.5,1.7-1.1,3.4-1.6,5.1c-1,3.1-2,6.3-3,9.5c-1.5,5-2.9,10-4.2,14.7c-1.5,5.5-2.7,10.4-3.8,15c-1.1,4.6-2.3,9.9-3.2,15.3
			l-0.9,4.9l3.1-3.8c3.4-4.1,6.5-8.5,9.3-12.2c2.7-3.8,5.5-7.9,8.6-12.5c3.1-4.7,5.7-8.7,8.2-12.7c1.8-2.8,3.5-5.6,5.1-8.4
			c0.9-1.5,1.8-3,2.7-4.5c9.8-16.6,19.4-34.4,28.5-53l9.7-19.8l0.9-1.9l-2-0.1l-22.4-1.7c-2.7-0.2-5.5-0.3-8.2-0.4c0,0-0.1,0-0.1,0
			c0.1-0.3,0.2-0.6,0.4-0.8c4-9.3,7.5-17.8,10.6-25.9c1.7-4.5,3.3-8.8,4.9-13.2c0.8-2.2,1.6-4.5,2.3-6.7c0.3-0.8,0.5-1.6,0.8-2.4
			c0.5-1.4,1-2.9,1.4-4.3c1.6-4.9,3-9.4,4.2-13.6c1.2-4,2.5-8.9,3.7-14L5323.5,383.1L5323.5,383.1z"/>
	</g>
	<g>
		<path class="st1" d="M4784.7,696.5h-131.8l6-30.8l88-114.9h-61.1l8.5-40.7H4820l-6.6,31.2l-89.2,114.5h69.2L4784.7,696.5z"/>
		<path class="st1" d="M4892.2,661.6h-57.1l-15.9,34.9h-51.8l94.8-186.4h64.1l15.7,186.4h-48.6L4892.2,661.6z M4853.4,621.8h37.3
			l-2.2-54l-0.3-11c0-6.4,0.2-11.9,0.5-16.7c-2,7.3-4.6,14.4-7.8,21.2L4853.4,621.8z"/>
		<path class="st1" d="M5096.3,566c0,21.4-7.3,38.2-21.9,50.4c-14.6,12.2-34.5,18.3-59.8,18.3h-11l-12.7,61.8H4941l39.4-186.4h47.5
			c22,0,38.9,4.8,50.7,14.5C5090.4,534.3,5096.3,548.1,5096.3,566z M5012.6,593.9h8c7.7,0,14-2.5,18.7-7.5c4.8-5,7.1-11.3,7.1-18.9
			c0-5-1.5-9.1-4.6-12.1c-3.1-3.1-7.3-4.6-12.6-4.6h-7.5L5012.6,593.9z"/>
		<path class="st1" d="M5236.5,566c0,21.4-7.3,38.2-21.9,50.4c-14.6,12.2-34.5,18.3-59.8,18.3h-11l-12.7,61.8h-49.8l39.4-186.4h47.5
			c22,0,38.9,4.8,50.7,14.5C5230.6,534.3,5236.5,548.1,5236.5,566z M5152.8,593.9h8c7.7,0,14-2.5,18.7-7.5c4.8-5,7.1-11.3,7.1-18.9
			c0-5-1.5-9.1-4.6-12.1c-3.1-3.1-7.3-4.6-12.6-4.6h-7.5L5152.8,593.9z"/>
	</g>
	<polygon class="st1" points="4672.9,551.9 4568.2,564.5 4568.6,557.7 	"/>
	<polygon class="st1" points="4689.3,628.2 4576.8,641.6 4577.3,634.4 	"/>
	<polygon class="st1" points="4633.3,594.1 4553.3,603.7 4553.6,598.6 	"/>
</g>
<rect x="5500" class="st2" width="1080" height="1080"/>
<g>
	<g>
		<path class="st1" d="M6352.1,595c0.9-5.4,2.1-10.7,3.2-15.3c1.1-4.6,2.3-9.4,3.8-14.9c1.3-4.7,2.7-9.7,4.2-14.7
			c0.9-3.2,2-6.4,2.9-9.5c0.5-1.7,1.1-3.4,1.6-5.1c3.6-10.9,7.5-22,12.1-34c-3.9-0.1-7.2-0.3-10.3-0.6l-24.6-2.1l12-20.8
			c4.7-8.2,9.5-16.1,14.2-23.7c5.3-8.5,10.3-16.1,15.2-23.2c2.6-3.8,5.2-7.6,8-11.4c1.3-1.9,2.7-3.8,4.1-5.6l1.5-2
			c0.9-1.2,1.8-2.4,2.7-3.6c3.1-4.1,5.9-7.6,8.7-11c2.6-3.2,5.8-6.9,9.2-10.6l1.6-1.7l-0.5,2.4c-1.1,5.1-2.5,9.9-3.7,13.9
			c-1.2,4.2-2.6,8.7-4.2,13.6c-0.5,1.4-0.9,2.9-1.4,4.3l-0.8,2.4c-0.7,2.2-1.5,4.5-2.3,6.7c-1.5,4.4-3.2,8.7-4.9,13.2
			c-3.1,8.1-6.5,16.6-10.5,25.9c-0.2,0.5-0.8,1.8-0.8,1.8c0.4,0,0.7,0,1.1,0c2.7,0.1,5.5,0.2,8.2,0.4l23.4,1.7l-10.2,20.7
			c-9.2,18.6-18.7,36.4-28.5,53c-0.9,1.5-1.8,3-2.7,4.5c-1.6,2.8-3.4,5.6-5.1,8.4c-2.5,4-5.1,8-8.1,12.7c-3.1,4.6-5.9,8.7-8.6,12.5
			c-2.7,3.7-5.9,8.1-9.2,12.2l-1.5,1.9L6352.1,595z"/>
		<path class="st1" d="M6421.1,387.5c-1.1,4.7-2.3,9.3-3.6,13.9c-1.3,4.6-2.7,9.1-4.2,13.6c-0.7,2.2-1.5,4.5-2.2,6.7
			c-0.7,2.2-1.5,4.4-2.3,6.7c-1.6,4.4-3.2,8.8-4.9,13.2c-3.3,8.7-6.9,17.4-10.5,25.9c-0.4,0.9-0.8,1.8-1.2,2.7c0.7,0,1.4,0,2.1,0
			c2.7,0.1,5.4,0.2,8.1,0.4l22.4,1.7L6415,492c-8.8,18-18.3,35.6-28.5,52.9c-2.6,4.3-5.1,8.6-7.8,12.9c-2.6,4.3-5.4,8.5-8.2,12.7
			c-2.8,4.2-5.6,8.4-8.6,12.5c-3,4.1-6,8.2-9.2,12.2c0.9-5.2,2-10.2,3.2-15.2c1.2-5,2.5-10,3.8-14.9c1.4-4.9,2.8-9.8,4.2-14.7
			c1.4-4.9,3-9.7,4.6-14.5c3.9-11.8,8-23.4,12.4-34.9c-3.7-0.1-7.5-0.3-11.2-0.6l-23.6-2l11.5-19.9c4.6-8,9.3-15.9,14.2-23.7
			c4.9-7.8,9.9-15.5,15.2-23.1c2.6-3.8,5.2-7.6,8-11.3c1.3-1.9,2.7-3.8,4.1-5.6c1.4-1.9,2.8-3.7,4.2-5.6c2.8-3.7,5.7-7.3,8.7-10.9
			C6414.9,394.5,6417.9,390.9,6421.1,387.5 M6423.5,383.1l-3.2,3.5c-3.5,3.7-6.6,7.5-9.3,10.7c-2.7,3.3-5.6,6.9-8.7,11
			c-0.9,1.2-1.8,2.4-2.7,3.6c-0.5,0.7-1,1.3-1.5,2c-1.4,1.9-2.7,3.7-4.1,5.6c-2.7,3.8-5.3,7.5-8,11.4c-4.9,7.1-9.9,14.7-15.2,23.2
			c-4.8,7.6-9.6,15.6-14.3,23.7l-11.5,19.9l-1.1,1.9l2.1,0.2l23.6,2c2.9,0.2,5.9,0.4,9.4,0.6c-4.4,11.6-8.3,22.5-11.8,33.1
			c-0.5,1.7-1.1,3.4-1.6,5.1c-1,3.1-2,6.3-3,9.5c-1.5,5-2.9,10-4.2,14.7c-1.5,5.5-2.7,10.4-3.8,15c-1.1,4.6-2.3,9.9-3.2,15.3
			l-0.9,4.9l3.1-3.8c3.4-4.1,6.5-8.5,9.3-12.2c2.7-3.8,5.5-7.9,8.6-12.5c3.1-4.7,5.7-8.7,8.2-12.7c1.8-2.8,3.5-5.6,5.1-8.4
			c0.9-1.5,1.8-3,2.7-4.5c9.8-16.6,19.4-34.4,28.5-53l9.7-19.8l0.9-1.9l-2-0.1l-22.4-1.7c-2.7-0.2-5.5-0.3-8.2-0.4c0,0-0.1,0-0.1,0
			c0.1-0.3,0.2-0.6,0.4-0.8c4-9.3,7.5-17.8,10.6-25.9c1.7-4.5,3.3-8.8,4.9-13.2c0.8-2.2,1.6-4.5,2.3-6.7c0.3-0.8,0.5-1.6,0.8-2.4
			c0.5-1.4,1-2.9,1.4-4.3c1.6-4.9,3-9.4,4.2-13.6c1.2-4,2.5-8.9,3.7-14L6423.5,383.1L6423.5,383.1z"/>
	</g>
	<g>
		<path class="st1" d="M5884.7,696.5h-131.8l6-30.8l88-114.9h-61.1l8.5-40.7H5920l-6.6,31.2l-89.2,114.5h69.2L5884.7,696.5z"/>
		<path class="st1" d="M5992.2,661.6h-57.1l-15.9,34.9h-51.8l94.8-186.4h64.1l15.7,186.4h-48.6L5992.2,661.6z M5953.4,621.8h37.3
			l-2.2-54l-0.3-11c0-6.4,0.2-11.9,0.5-16.7c-2,7.3-4.6,14.4-7.8,21.2L5953.4,621.8z"/>
		<path class="st1" d="M6196.3,566c0,21.4-7.3,38.2-21.9,50.4c-14.6,12.2-34.5,18.3-59.8,18.3h-11l-12.7,61.8H6041l39.4-186.4h47.5
			c22,0,38.9,4.8,50.7,14.5C6190.4,534.3,6196.3,548.1,6196.3,566z M6112.6,593.9h8c7.7,0,14-2.5,18.7-7.5c4.8-5,7.1-11.3,7.1-18.9
			c0-5-1.5-9.1-4.6-12.1c-3.1-3.1-7.3-4.6-12.6-4.6h-7.5L6112.6,593.9z"/>
		<path class="st1" d="M6336.5,566c0,21.4-7.3,38.2-21.9,50.4c-14.6,12.2-34.5,18.3-59.8,18.3h-11l-12.7,61.8h-49.8l39.4-186.4h47.5
			c22,0,38.9,4.8,50.7,14.5C6330.6,534.3,6336.5,548.1,6336.5,566z M6252.8,593.9h8c7.7,0,14-2.5,18.7-7.5c4.8-5,7.1-11.3,7.1-18.9
			c0-5-1.5-9.1-4.6-12.1c-3.1-3.1-7.3-4.6-12.6-4.6h-7.5L6252.8,593.9z"/>
	</g>
	<polygon class="st1" points="5772.9,551.9 5668.2,564.5 5668.6,557.7 	"/>
	<polygon class="st1" points="5789.3,628.2 5676.8,641.6 5677.3,634.4 	"/>
	<polygon class="st1" points="5733.3,594.1 5653.3,603.7 5653.6,598.6 	"/>
</g>
<g>
	<g>
		<path class="st2" d="M1952.1,595.2c0.9-5.4,2.1-10.7,3.2-15.3c1.1-4.6,2.3-9.4,3.8-14.9c1.3-4.7,2.7-9.7,4.2-14.7
			c0.9-3.2,2-6.4,2.9-9.5c0.5-1.7,1.1-3.4,1.6-5.1c3.6-10.9,7.5-22,12.1-34c-3.9-0.1-7.2-0.3-10.3-0.6L1945,499l12-20.8
			c4.7-8.2,9.5-16.1,14.2-23.7c5.3-8.5,10.3-16.1,15.2-23.2c2.6-3.8,5.2-7.6,8-11.4c1.3-1.9,2.7-3.8,4.1-5.6l1.5-2
			c0.9-1.2,1.8-2.4,2.7-3.6c3.1-4.1,5.9-7.6,8.7-11c2.6-3.2,5.8-6.9,9.2-10.6l1.6-1.7l-0.5,2.4c-1.1,5.1-2.5,9.9-3.7,13.9
			c-1.2,4.2-2.6,8.7-4.2,13.6c-0.5,1.4-0.9,2.9-1.4,4.3l-0.8,2.4c-0.7,2.2-1.5,4.5-2.3,6.7c-1.5,4.4-3.2,8.7-4.9,13.2
			c-3.1,8.1-6.5,16.6-10.5,25.9c-0.2,0.5-0.8,1.8-0.8,1.8c0.4,0,0.7,0,1.1,0c2.7,0.1,5.5,0.2,8.2,0.4l23.4,1.7l-10.2,20.7
			c-9.2,18.6-18.7,36.4-28.5,53c-0.9,1.5-1.8,3-2.7,4.5c-1.6,2.8-3.4,5.6-5.1,8.4c-2.5,4-5.1,8-8.1,12.7c-3.1,4.6-5.9,8.7-8.6,12.5
			c-2.7,3.7-5.9,8.1-9.2,12.2l-1.5,1.9L1952.1,595.2z"/>
		<path class="st2" d="M2021.1,387.7c-1.1,4.7-2.3,9.3-3.6,13.9c-1.3,4.6-2.7,9.1-4.2,13.6c-0.7,2.2-1.5,4.5-2.2,6.7
			c-0.7,2.2-1.5,4.4-2.3,6.7c-1.6,4.4-3.2,8.8-4.9,13.2c-3.3,8.7-6.9,17.4-10.5,25.9c-0.4,0.9-0.8,1.8-1.2,2.7c0.7,0,1.4,0,2.1,0
			c2.7,0.1,5.4,0.2,8.1,0.4l22.4,1.7l-9.7,19.8c-8.8,18-18.3,35.6-28.5,52.9c-2.6,4.3-5.1,8.6-7.8,12.9c-2.6,4.3-5.4,8.5-8.2,12.7
			c-2.8,4.2-5.6,8.4-8.6,12.5c-3,4.1-6,8.2-9.2,12.2c0.9-5.2,2-10.2,3.2-15.2c1.2-5,2.5-10,3.8-14.9c1.4-4.9,2.8-9.8,4.2-14.7
			c1.4-4.9,3-9.7,4.6-14.5c3.9-11.8,8-23.4,12.4-34.9c-3.7-0.1-7.5-0.3-11.2-0.6l-23.6-2l11.5-19.9c4.6-8,9.3-15.9,14.2-23.7
			c4.9-7.8,9.9-15.5,15.2-23.1c2.6-3.8,5.2-7.6,8-11.3c1.3-1.9,2.7-3.8,4.1-5.6c1.4-1.9,2.8-3.7,4.2-5.6c2.8-3.7,5.7-7.3,8.7-10.9
			C2014.8,394.7,2017.9,391.1,2021.1,387.7 M2023.4,383.3l-3.2,3.5c-3.5,3.7-6.6,7.5-9.3,10.7c-2.7,3.3-5.6,6.9-8.7,11
			c-0.9,1.2-1.8,2.4-2.7,3.6c-0.5,0.7-1,1.3-1.5,2c-1.4,1.9-2.7,3.7-4.1,5.6c-2.7,3.8-5.3,7.5-8,11.4c-4.9,7.1-9.9,14.7-15.2,23.2
			c-4.8,7.6-9.6,15.6-14.3,23.7l-11.5,19.9l-1.1,1.9l2.1,0.2l23.6,2c2.9,0.2,5.9,0.4,9.4,0.6c-4.4,11.6-8.3,22.5-11.8,33.1
			c-0.5,1.7-1.1,3.4-1.6,5.1c-1,3.1-2,6.3-3,9.5c-1.5,5-2.9,10-4.2,14.7c-1.5,5.5-2.7,10.4-3.8,15c-1.1,4.6-2.3,9.9-3.2,15.3
			l-0.8,4.9l3.1-3.8c3.4-4.1,6.5-8.5,9.3-12.2c2.7-3.8,5.5-7.9,8.6-12.5c3.1-4.7,5.7-8.7,8.2-12.7c1.8-2.8,3.5-5.6,5.1-8.4
			c0.9-1.5,1.8-3,2.7-4.5c9.8-16.6,19.4-34.4,28.5-53l9.7-19.8l0.9-1.9l-2-0.1l-22.4-1.7c-2.7-0.2-5.5-0.3-8.2-0.4c0,0-0.1,0-0.1,0
			c0.1-0.3,0.2-0.6,0.4-0.8c4-9.3,7.5-17.8,10.6-25.9c1.7-4.5,3.3-8.8,4.9-13.2c0.8-2.2,1.6-4.5,2.3-6.7c0.3-0.8,0.5-1.6,0.8-2.4
			c0.5-1.4,1-2.9,1.4-4.3c1.6-4.9,3-9.4,4.2-13.6c1.2-4,2.5-8.9,3.7-14L2023.4,383.3L2023.4,383.3z"/>
	</g>
	<g>
		<path class="st2" d="M1484.6,696.7h-131.8l6-30.8l88-114.9h-61.1l8.5-40.7h125.7l-6.6,31.2l-89.2,114.5h69.2L1484.6,696.7z"/>
		<path class="st2" d="M1592.2,661.8h-57.1l-15.9,34.9h-51.8l94.8-186.4h64.1l15.7,186.4h-48.6L1592.2,661.8z M1553.3,622h37.3
			l-2.2-54l-0.3-11c0-6.4,0.2-11.9,0.5-16.7c-2,7.3-4.6,14.4-7.8,21.2L1553.3,622z"/>
		<path class="st2" d="M1796.3,566.2c0,21.4-7.3,38.2-21.9,50.4c-14.6,12.2-34.5,18.3-59.8,18.3h-11l-12.7,61.8H1641l39.4-186.4
			h47.5c22,0,38.9,4.8,50.7,14.5C1790.4,534.5,1796.3,548.3,1796.3,566.2z M1712.5,594.1h8c7.7,0,14-2.5,18.7-7.5
			c4.8-5,7.1-11.3,7.1-18.9c0-5-1.5-9.1-4.6-12.1c-3.1-3.1-7.3-4.6-12.6-4.6h-7.5L1712.5,594.1z"/>
		<path class="st2" d="M1936.5,566.2c0,21.4-7.3,38.2-21.9,50.4c-14.6,12.2-34.5,18.3-59.8,18.3h-11l-12.7,61.8h-49.8l39.4-186.4
			h47.5c22,0,38.9,4.8,50.7,14.5C1930.6,534.5,1936.5,548.3,1936.5,566.2z M1852.7,594.1h8c7.7,0,14-2.5,18.7-7.5
			c4.8-5,7.1-11.3,7.1-18.9c0-5-1.5-9.1-4.6-12.1c-3.1-3.1-7.3-4.6-12.6-4.6h-7.5L1852.7,594.1z"/>
	</g>
	<polygon class="st2" points="1372.8,552.1 1268.1,564.7 1268.6,557.9 	"/>
	<polygon class="st2" points="1389.2,628.4 1276.8,641.8 1277.2,634.6 	"/>
	<polygon class="st2" points="1333.2,594.3 1253.3,603.9 1253.6,598.8 	"/>
</g>
<g>
	<path class="st0" d="M2636,863.7c2.9-16.8,6.7-33.4,10-47.7c3.4-14.3,7.3-29.5,11.9-46.7c4.1-14.7,8.5-30.4,13.3-46
		c2.9-9.9,6.1-19.9,9.2-29.6c1.7-5.3,3.4-10.5,5-15.8c11.2-34,23.5-68.8,37.8-106.2c-12.3-0.4-22.6-1-32.2-1.8l-76.9-6.6l37.5-65.1
		c14.7-25.5,29.7-50.4,44.5-74.1c16.6-26.5,32.1-50.2,47.4-72.4c8.3-12,16.4-23.7,24.9-35.5c4.2-5.9,8.4-11.8,12.8-17.5l4.6-6.2
		c2.8-3.7,5.6-7.5,8.4-11.2c9.7-12.7,18.6-23.9,27-34.2c8.2-9.9,18-21.7,28.8-33.3l5.1-5.4l-1.7,7.4c-3.6,15.9-7.8,31-11.4,43.6
		c-3.8,13.2-8.1,27.1-13.1,42.5c-1.4,4.5-3,8.9-4.5,13.4l-2.6,7.6c-2.3,7-4.8,13.9-7.3,20.8c-4.8,13.7-9.9,27.3-15.2,41.2
		c-9.7,25.4-20.4,51.9-32.9,81c-0.7,1.6-2.5,5.6-2.5,5.6c1.1,0,2.2,0,3.4,0.1c8.5,0.2,17.1,0.7,25.5,1.3l73.1,5.4l-31.8,64.7
		c-28.6,58.2-58.6,113.9-89,165.5c-2.9,4.7-5.7,9.4-8.5,14.2c-5.1,8.6-10.5,17.5-16,26.1c-7.8,12.6-15.8,25-25.5,39.7
		c-9.7,14.5-18.5,27.3-26.8,39.1c-8.4,11.7-18.3,25.2-28.8,38.1l-4.8,5.9L2636,863.7z"/>
	<path class="st0" d="M2851.7,215.2c-3.3,14.8-7.3,29.2-11.4,43.4c-4.1,14.3-8.5,28.4-13.1,42.4c-2.2,7-4.7,13.9-7,20.9
		c-2.3,7-4.8,13.9-7.3,20.8c-4.9,13.8-10,27.5-15.2,41.2c-10.4,27.3-21.4,54.2-32.9,80.9c-1.2,2.9-2.5,5.7-3.8,8.6
		c2.1,0,4.3,0.1,6.4,0.1c8.5,0.2,17,0.7,25.4,1.3l70.1,5.2l-30.4,61.8c-27.6,56.1-57.1,111.3-89,165.3c-8.2,13.4-16,26.9-24.5,40.2
		c-8.3,13.3-16.8,26.5-25.5,39.7c-8.7,13.1-17.6,26.1-26.8,39c-9.3,12.8-18.6,25.6-28.8,38c2.8-16.1,6.3-31.9,10-47.6
		c3.7-15.7,7.7-31.2,11.9-46.6c4.3-15.4,8.6-30.7,13.3-45.9c4.4-15.3,9.5-30.3,14.2-45.4c12.1-36.8,25.1-73,38.8-108.9
		c-11.7-0.4-23.4-0.9-35.1-1.9l-73.7-6.4l35.8-62.1c14.4-24.9,29.2-49.6,44.5-74c15.3-24.4,31-48.5,47.4-72.3
		c8.2-11.9,16.4-23.8,24.9-35.4c4.2-5.9,8.4-11.7,12.8-17.5c4.4-5.8,8.6-11.6,13-17.4c8.8-11.5,17.8-22.9,27-34.2
		C2832.2,237.1,2841.7,226,2851.7,215.2 M2859,201.3l-10.1,10.8c-10.9,11.6-20.7,23.4-28.9,33.4c-8.5,10.3-17.4,21.6-27.1,34.3
		c-2.9,3.7-5.6,7.4-8.4,11.2c-1.5,2.1-3.1,4.2-4.6,6.2c-4.4,5.8-8.6,11.6-12.9,17.6c-8.6,11.7-16.7,23.5-25,35.5
		c-15.3,22.2-30.9,45.9-47.5,72.5c-14.9,23.7-29.8,48.7-44.6,74.2L2614,559l-3.4,5.9l6.5,0.6l73.7,6.4c8.9,0.8,18.4,1.3,29.5,1.7
		c-13.8,36.4-25.9,70.3-36.7,103.4c-1.7,5.3-3.4,10.6-5,15.9c-3.1,9.7-6.3,19.7-9.2,29.7c-4.8,15.6-9.2,31.3-13.3,46
		c-4.6,17.2-8.5,32.5-11.9,46.8c-3.3,14.4-7.1,31.1-10,47.9l-2.7,15.4l9.6-11.8c10.6-12.9,20.5-26.5,28.9-38.2
		c8.4-11.8,17.2-24.6,26.9-39.1c9.7-14.8,17.7-27.2,25.6-39.8c5.5-8.6,10.8-17.5,16-26.1c2.8-4.7,5.7-9.4,8.5-14.1
		c30.5-51.7,60.5-107.4,89.2-165.7l30.4-61.8l2.8-5.8l-6.1-0.5l-70.1-5.2c-8.5-0.6-17.1-1.1-25.6-1.3c-0.1,0-0.2,0-0.3,0
		c0.4-0.9,0.8-1.8,1.2-2.6c12.5-29.1,23.3-55.6,33-81.1c5.3-13.9,10.5-27.6,15.3-41.3c2.5-7,5-13.9,7.3-20.9c0.8-2.5,1.7-5,2.6-7.5
		c1.5-4.5,3-8.9,4.5-13.4c5-15.4,9.3-29.3,13.1-42.5c3.6-12.6,7.8-27.7,11.5-43.7L2859,201.3L2859,201.3z"/>
</g>
<g>
	<path class="st3" d="M3736,863.7c2.9-16.8,6.7-33.4,10-47.7c3.4-14.3,7.3-29.5,11.9-46.7c4.1-14.7,8.5-30.4,13.3-46
		c2.9-9.9,6.1-19.9,9.2-29.6c1.7-5.3,3.4-10.5,5-15.8c11.2-34,23.5-68.8,37.8-106.2c-12.3-0.4-22.6-1-32.2-1.8l-76.9-6.6l37.5-65.1
		c14.7-25.5,29.7-50.4,44.5-74.1c16.6-26.5,32.1-50.2,47.4-72.4c8.3-12,16.4-23.7,24.9-35.5c4.2-5.9,8.4-11.8,12.8-17.5l4.6-6.2
		c2.8-3.7,5.6-7.5,8.4-11.2c9.7-12.7,18.6-23.9,27-34.2c8.2-9.9,18-21.7,28.8-33.3l5.1-5.4l-1.7,7.4c-3.6,15.9-7.8,31-11.4,43.6
		c-3.8,13.2-8.1,27.1-13.1,42.5c-1.4,4.5-3,8.9-4.5,13.4l-2.6,7.6c-2.3,7-4.8,13.9-7.3,20.8c-4.8,13.7-9.9,27.3-15.2,41.2
		c-9.7,25.4-20.4,51.9-32.9,81c-0.7,1.6-2.5,5.6-2.5,5.6c1.1,0,2.2,0,3.4,0.1c8.5,0.2,17.1,0.7,25.5,1.3l73.1,5.4l-31.8,64.7
		c-28.6,58.2-58.6,113.9-89,165.5c-2.9,4.7-5.7,9.4-8.5,14.2c-5.1,8.6-10.5,17.5-16,26.1c-7.8,12.6-15.8,25-25.5,39.7
		c-9.7,14.5-18.5,27.3-26.8,39.1c-8.4,11.7-18.3,25.2-28.8,38.1l-4.8,5.9L3736,863.7z"/>
	<path class="st3" d="M3951.7,215.2c-3.3,14.8-7.3,29.2-11.4,43.4c-4.1,14.3-8.5,28.4-13.1,42.4c-2.2,7-4.7,13.9-7,20.9
		c-2.3,7-4.8,13.9-7.3,20.8c-4.9,13.8-10,27.5-15.2,41.2c-10.4,27.3-21.4,54.2-32.9,80.9c-1.2,2.9-2.5,5.7-3.8,8.6
		c2.1,0,4.3,0.1,6.4,0.1c8.5,0.2,17,0.7,25.4,1.3l70.1,5.2l-30.4,61.8c-27.6,56.1-57.1,111.3-89,165.3c-8.2,13.4-16,26.9-24.5,40.2
		c-8.3,13.3-16.8,26.5-25.5,39.7c-8.7,13.1-17.6,26.1-26.8,39c-9.3,12.8-18.6,25.6-28.8,38c2.8-16.1,6.3-31.9,10-47.6
		c3.7-15.7,7.7-31.2,11.9-46.6c4.3-15.4,8.6-30.7,13.3-45.9c4.4-15.3,9.5-30.3,14.2-45.4c12.1-36.8,25.1-73,38.8-108.9
		c-11.7-0.4-23.4-0.9-35.1-1.9l-73.7-6.4l35.8-62.1c14.4-24.9,29.2-49.6,44.5-74c15.3-24.4,31-48.5,47.4-72.3
		c8.2-11.9,16.4-23.8,24.9-35.4c4.2-5.9,8.4-11.7,12.8-17.5c4.4-5.8,8.6-11.6,13-17.4c8.8-11.5,17.8-22.9,27-34.2
		C3932.2,237.1,3941.7,226,3951.7,215.2 M3959,201.3l-10.1,10.8c-10.9,11.6-20.7,23.4-28.9,33.4c-8.5,10.3-17.4,21.6-27.1,34.3
		c-2.9,3.7-5.6,7.4-8.4,11.2c-1.5,2.1-3.1,4.2-4.6,6.2c-4.4,5.8-8.6,11.6-12.9,17.6c-8.6,11.7-16.7,23.5-25,35.5
		c-15.3,22.2-30.9,45.9-47.5,72.5c-14.9,23.7-29.8,48.7-44.6,74.2L3714,559l-3.4,5.9l6.5,0.6l73.7,6.4c8.9,0.8,18.4,1.3,29.5,1.7
		c-13.8,36.4-25.9,70.3-36.7,103.4c-1.7,5.3-3.4,10.6-5,15.9c-3.1,9.7-6.3,19.7-9.2,29.7c-4.8,15.6-9.2,31.3-13.3,46
		c-4.6,17.2-8.5,32.5-11.9,46.8c-3.3,14.4-7.1,31.1-10,47.9l-2.7,15.4l9.6-11.8c10.6-12.9,20.5-26.5,28.9-38.2
		c8.4-11.8,17.2-24.6,26.9-39.1c9.7-14.8,17.7-27.2,25.6-39.8c5.5-8.6,10.8-17.5,16-26.1c2.8-4.7,5.7-9.4,8.5-14.1
		c30.5-51.7,60.5-107.4,89.2-165.7l30.4-61.8l2.8-5.8l-6.1-0.5l-70.1-5.2c-8.5-0.6-17.1-1.1-25.6-1.3c-0.1,0-0.2,0-0.3,0
		c0.4-0.9,0.8-1.8,1.2-2.6c12.5-29.1,23.3-55.6,33-81.1c5.3-13.9,10.5-27.6,15.3-41.3c2.5-7,5-13.9,7.3-20.9c0.8-2.5,1.7-5,2.6-7.5
		c1.5-4.5,3-8.9,4.5-13.4c5-15.4,9.3-29.3,13.1-42.5c3.6-12.6,7.8-27.7,11.5-43.7L3959,201.3L3959,201.3z"/>
</g>
</svg>
